G04 FreePCB version 1.359*
G04 C:\freepcb\projects\thermokUSB-RTD2_rev1\CAM\bottom_solder_mask.grb*
G04 bottom solder mask layer *
G04 Scale: 100 percent, Rotated: No, Reflected: No *
%FSLAX24Y24*%
%MOIN*%
%LN bottom solder mask *%
G04 Rounded Rectangle Macro, params: W/2, H/2, R *
%AMRNDREC*
21,1,$1+$1,$2+$2-$3-$3,0,0,0*
21,1,$1+$1-$3-$3,$2+$2,0,0,0*
1,1,$3+$3,$1-$3,$2-$3*
1,1,$3+$3,$3-$1,$2-$3*
1,1,$3+$3,$1-$3,$3-$2*
1,1,$3+$3,$3-$1,$3-$2*%
G04 Rectangular Thermal Macro, params: W/2, H/2, T/2 *
%AMRECTHERM*
$4=$3/2*
21,1,$1-$3,$2-$3,0-$1/2-$4,0-$2/2-$4,0*
21,1,$1-$3,$2-$3,0-$1/2-$4,$2/2+$4,0*
21,1,$1-$3,$2-$3,$1/2+$4,0-$2/2-$4,0*
21,1,$1-$3,$2-$3,$1/2+$4,$2/2+$4,0*%
%ADD10C,0.005000*%
%ADD11RNDREC,0.047500X0.047500X0.018000*%
%ADD12C,0.095000*%
%ADD13R,0.071118X0.067181*%
%ADD14R,0.067181X0.071118*%
%ADD15C,0.071000*%
%ADD16RNDREC,0.035500X0.035500X0.023000*%
%ADD17RNDREC,0.068000X0.068000X0.028000*%
%ADD18R,0.096000X0.066000*%
%ADD19R,0.250000X0.266000*%
%ADD20R,0.081000X0.081000*%
%ADD21C,0.081000*%
%ADD22R,0.076000X0.076000*%
%ADD23C,0.076000*%
%ADD24C,0.044000*%
%ADD25C,0.166000*%
%ADD26C,0.096000*%
G90*
G70D02*

G04 Step and Repeat for panelization *

G04 ----------------------- Draw board outline (positive)*
%LPD*%
G54D10*
G01X0Y0D02*
G01X-8000Y0D01*
G04 end of side 1*
G01X-8000Y17500D01*
G04 end of side 2*
G01X8000Y17500D01*
G04 end of side 3*
G01X8000Y0D01*
G04 end of side 4*
G01X0Y0D01*

G04 -------------- Draw Parts, Pads, Traces, Vias and Text (positive)*
%LPD*%
G04 Draw part P1*
G54D11*
G01X3000Y5500D03*
G54D12*
G01X3000Y4000D03*
G01X3000Y2500D03*
G01X3000Y1000D03*
G04 Draw part U1*
G04 Draw part R3*
G04 Draw part R2*
G54D13*
G01X2100Y4034D03*
G01X2100Y3365D03*
G04 Draw part C3*
G01X1500Y4915D03*
G01X1500Y5584D03*
G04 Draw part C1*
G54D14*
G01X-1165Y750D03*
G01X-1834Y750D03*
G04 Draw part C2*
G01X-1165Y1500D03*
G01X-1834Y1500D03*
G04 Draw part P2*
G54D11*
G01X-3000Y1000D03*
G54D12*
G01X-3000Y2500D03*
G01X-3000Y4000D03*
G01X-3000Y5500D03*
G04 Draw part U2*
G04 Draw part R6*
G54D14*
G01X334Y500D03*
G01X-334Y500D03*
G04 Draw part R5*
G01X1834Y500D03*
G01X1165Y500D03*
G04 Draw part C6*
G54D13*
G01X1500Y1415D03*
G01X1500Y2084D03*
G04 Draw part C4*
G54D14*
G01X-1165Y4250D03*
G01X-1834Y4250D03*
G04 Draw part C5*
G01X-1165Y5000D03*
G01X-1834Y5000D03*
G04 Draw part R1*
G01X2034Y9100D03*
G01X1365Y9100D03*
G04 Draw part R4*
G01X2034Y8400D03*
G01X1365Y8400D03*
G04 Draw part U4*
G04 Draw part J2*
G54D15*
G01X490Y12640D03*
G01X-490Y12640D03*
G01X490Y11850D03*
G54D16*
G01X-490Y11850D03*
G54D17*
G01X2370Y13700D03*
G01X-2370Y13700D03*
G04 Draw part C9*
G04 Draw part C10*
G04 Draw part X1*
G04 Draw part C11*
G04 Draw part C12*
G04 Draw part U3*
G54D18*
G01X-500Y15000D03*
G54D19*
G01X2410Y15890D03*
G54D18*
G01X-500Y16790D03*
G04 Draw part C7*
G54D14*
G01X-584Y14000D03*
G01X84Y14000D03*
G04 Draw part C8*
G54D13*
G01X-1500Y16834D03*
G01X-1500Y16165D03*
G04 Draw part J1*
G54D20*
G01X-7250Y15750D03*
G54D21*
G01X-6250Y15750D03*
G01X-5250Y15750D03*
G01X-4250Y15750D03*
G01X-3250Y15750D03*
G04 Draw part P3*
G54D22*
G01X3500Y7500D03*
G54D23*
G01X3500Y8500D03*
G01X3500Y9500D03*
G01X3500Y10500D03*
G01X3500Y11500D03*
G01X3500Y12500D03*
G04 Draw part TP1*
G54D24*
G01X-3500Y6700D03*
G04 Draw part DIN1*
G54D25*
G01X-6000Y13670D03*
G01X-6000Y3828D03*
G04 Draw part DIN2*
G01X6000Y3830D03*
G01X6000Y13671D03*
G04 Draw part TP2*
G54D26*
G01X5500Y8500D03*
G04 Draw part R7*
G04 Draw part D1G*

G04 Draw traces*
G54D24*
G01X750Y2800D03*
G01X900Y6200D03*
G01X-875Y3250D03*
G01X-875Y8500D03*
G01X875Y1000D03*
G01X-3375Y13250D03*
G01X-1875Y11750D03*
G01X1450Y4950D03*
G01X1750Y2625D03*
G01X-1125Y2875D03*
G01X1500Y1375D03*
G01X-1250Y5000D03*
G01X-1100Y4300D03*
G01X375Y16625D03*
G01X1875Y10500D03*
G01X-1250Y1500D03*
G01X-1125Y875D03*
G01X-7125Y12375D03*
G01X-4375Y5625D03*
G01X2000Y3375D03*
G01X1625Y5500D03*
G01X350Y3250D03*
G01X350Y6600D03*
G01X750Y7375D03*
G01X-350Y3250D03*
G01X-450Y6600D03*
G01X250Y500D03*
G01X1625Y2000D03*
G01X-1625Y2875D03*
G01X-500Y10750D03*
G01X-1375Y9875D03*
G01X-2000Y7500D03*
G01X-375Y500D03*
G01X999Y466D03*
G01X875Y8875D03*
G01X-1500Y9000D03*
G01X0Y7000D03*
G01X1125Y8375D03*
G01X-1125Y8125D03*
G01X-2500Y7125D03*
G01X-3000Y6625D03*
G01X0Y15500D03*
G01X-1875Y8500D03*
G01X0Y3050D03*
G01X250Y15875D03*
G01X-2750Y12500D03*
G01X-6750Y6500D03*
G01X375Y10125D03*
G01X1500Y10000D03*
G01X-3125Y11250D03*
G01X-750Y6125D03*
G01X-1250Y5875D03*
G01X-1625Y2375D03*
G01X1250Y2920D03*
G01X-5375Y15000D03*
G01X7375Y7500D03*

G04 Draw Text*

G04 Draw solder mask cutouts*
M00*
M02*
