G04 FreePCB version 1.359*
G04 C:\freepcb\projects\thermokUSB-RTD2_rev1\CAM\bottom_copper.grb*
G04 bottom copper layer *
G04 Scale: 100 percent, Rotated: No, Reflected: No *
%FSLAX24Y24*%
%MOIN*%
%LN bottom copper *%
G04 Rounded Rectangle Macro, params: W/2, H/2, R *
%AMRNDREC*
21,1,$1+$1,$2+$2-$3-$3,0,0,0*
21,1,$1+$1-$3-$3,$2+$2,0,0,0*
1,1,$3+$3,$1-$3,$2-$3*
1,1,$3+$3,$3-$1,$2-$3*
1,1,$3+$3,$1-$3,$3-$2*
1,1,$3+$3,$3-$1,$3-$2*%
G04 Rectangular Thermal Macro, params: W/2, H/2, T/2 *
%AMRECTHERM*
$4=$3/2*
21,1,$1-$3,$2-$3,0-$1/2-$4,0-$2/2-$4,0*
21,1,$1-$3,$2-$3,0-$1/2-$4,$2/2+$4,0*
21,1,$1-$3,$2-$3,$1/2+$4,0-$2/2-$4,0*
21,1,$1-$3,$2-$3,$1/2+$4,$2/2+$4,0*%
%ADD10C,0.005000*%
%ADD11RNDREC,0.049500X0.049500X0.020000*%
%ADD12C,0.099000*%
%ADD13R,0.075118X0.071181*%
%ADD14R,0.071181X0.075118*%
%ADD15C,0.075000*%
%AMTHERM16*7,0,0,0.075000,0.055000,0.010000,45.0*%
%ADD16THERM16*%
%ADD17C,0.001000*%
%ADD18RNDREC,0.037500X0.037500X0.025000*%
%ADD19RECTHERM,0.070000X0.070000X0.005000*%
%ADD20R,0.100000X0.070000*%
%ADD21R,0.254000X0.270000*%
%ADD22RECTHERM,0.042500X0.042500X0.005000*%
%ADD23C,0.085000*%
%ADD24RECTHERM,0.040000X0.040000X0.005000*%
%ADD25C,0.080000*%
%ADD26C,0.048000*%
%ADD27C,0.180000*%
%ADD28C,0.100000*%
%ADD29C,0.030000*%
%ADD30C,0.050000*%
%ADD31C,0.045000*%
%ADD32C,0.028000*%
%AMTHERM33*7,0,0,0.048000,0.028000,0.010000,45.0*%
%ADD33THERM33*%
%ADD34RNDREC,0.039500X0.039500X0.010000*%
%ADD35C,0.079000*%
%ADD36R,0.055118X0.051181*%
%ADD37R,0.051181X0.055118*%
%ADD38C,0.055000*%
%ADD39RNDREC,0.027500X0.027500X0.015000*%
%ADD40RNDREC,0.060000X0.060000X0.020000*%
%ADD41R,0.080000X0.050000*%
%ADD42R,0.234000X0.250000*%
%ADD43R,0.065000X0.065000*%
%ADD44C,0.065000*%
%ADD45R,0.060000X0.060000*%
%ADD46C,0.060000*%
%ADD47C,0.010000*%
%ADD48C,0.025000*%
%ADD49C,0.008000*%
G90*
G70D02*

G04 Step and Repeat for panelization *

G04 ----------------------- Draw board outline (positive)*
%LPD*%
G54D10*
G01X0Y0D02*
G01X-8000Y0D01*
G04 end of side 1*
G01X-8000Y17500D01*
G04 end of side 2*
G01X8000Y17500D01*
G04 end of side 3*
G01X8000Y0D01*
G04 end of side 4*
G01X0Y0D01*

G04 ----------------------- Draw copper area (positive)*
G36*
G01X7500Y250D02*
G01X-7500Y250D01*
G01X-7500Y17000D01*
G01X7500Y17000D01*
G01X7500Y250D01*
G37*

G04 -------------------- Draw copper area clearances (negative)*
%LPC*%

G04 Draw clearances for pads*
G54D11*
G01X3000Y5500D03*
G54D12*
G01X3000Y4000D03*
G01X3000Y2500D03*
G01X3000Y1000D03*
G54D13*
G01X2100Y4034D03*
G01X2100Y3365D03*
G01X1500Y4915D03*
G01X1500Y5584D03*
G54D14*
G01X-1165Y750D03*
G01X-1834Y750D03*
G01X-1165Y1500D03*
G01X-1834Y1500D03*
G54D11*
G01X-3000Y1000D03*
G54D12*
G01X-3000Y2500D03*
G01X-3000Y4000D03*
G01X-3000Y5500D03*
G54D14*
G01X334Y500D03*
G01X-334Y500D03*
G01X1834Y500D03*
G01X1165Y500D03*
G54D13*
G01X1500Y1415D03*
G01X1500Y2084D03*
G54D14*
G01X-1165Y4250D03*
G01X-1834Y4250D03*
G01X-1165Y5000D03*
G01X-1834Y5000D03*
G01X2034Y9100D03*
G01X1365Y9100D03*
G01X2034Y8400D03*
G01X1365Y8400D03*
G54D15*
G01X490Y12640D03*
G54D16*
G01X-490Y12640D03*
G54D17*
G54D15*
G01X490Y11850D03*
G54D18*
G01X-490Y11850D03*
G54D19*
G01X2370Y13700D03*
G54D17*
G54D19*
G01X-2370Y13700D03*
G54D17*
G54D20*
G01X-500Y15000D03*
G54D21*
G01X2410Y15890D03*
G54D20*
G01X-500Y16790D03*
G54D14*
G01X-584Y14000D03*
G01X84Y14000D03*
G54D13*
G01X-1500Y16834D03*
G01X-1500Y16165D03*
G54D22*
G01X-7250Y15750D03*
G54D17*
G54D23*
G01X-6250Y15750D03*
G01X-5250Y15750D03*
G01X-4250Y15750D03*
G01X-3250Y15750D03*
G54D24*
G01X3500Y7500D03*
G54D17*
G54D25*
G01X3500Y8500D03*
G01X3500Y9500D03*
G01X3500Y10500D03*
G01X3500Y11500D03*
G01X3500Y12500D03*
G54D26*
G01X-3500Y6700D03*
G54D27*
G01X-6000Y13670D03*
G01X-6000Y3828D03*
G01X6000Y3830D03*
G01X6000Y13671D03*
G54D28*
G01X5500Y8500D03*

G04 Draw clearances for traces*
G54D26*
G01X750Y2800D03*
G54D29*
G01X750Y2800D02*
G01X750Y6050D01*
G54D26*
G01X900Y6200D03*
G54D29*
G01X750Y6050D02*
G01X900Y6200D01*
G54D26*
G01X-875Y3250D03*
G54D29*
G01X-875Y3250D02*
G01X-250Y2625D01*
G01X-250Y2625D02*
G01X500Y2625D01*
G01X500Y2625D02*
G01X675Y2800D01*
G01X675Y2800D02*
G01X750Y2800D01*
G54D26*
G01X-875Y8500D03*
G54D29*
G01X-875Y8500D02*
G01X375Y8500D01*
G01X375Y8500D02*
G01X1000Y7875D01*
G01X1000Y7875D02*
G01X2875Y7875D01*
G01X2875Y7875D02*
G01X3500Y8500D01*
G54D26*
G01X875Y1000D03*
G54D29*
G01X875Y1000D02*
G01X-625Y1000D01*
G01X-625Y1000D02*
G01X-750Y875D01*
G01X-750Y875D02*
G01X-750Y375D01*
G01X-750Y375D02*
G01X-875Y250D01*
G01X-875Y250D02*
G01X-2250Y250D01*
G01X-2250Y250D02*
G01X-3000Y1000D01*
G54D26*
G01X-3375Y13250D03*
G54D29*
G01X-3375Y13250D02*
G01X-3000Y12875D01*
G01X-3000Y12875D02*
G01X-2500Y12875D01*
G01X-2500Y12875D02*
G01X-1875Y12250D01*
G54D26*
G01X-1875Y11750D03*
G54D29*
G01X-1875Y12250D02*
G01X-1875Y11750D01*
G54D26*
G01X1450Y4950D03*
G54D29*
G01X1500Y4915D02*
G01X1450Y4950D01*
G01X2100Y4034D02*
G01X2125Y4000D01*
G01X2125Y4000D02*
G01X3000Y4000D01*
G01X1500Y4915D02*
G01X1709Y4915D01*
G01X1709Y4915D02*
G01X2000Y4625D01*
G01X2000Y4625D02*
G01X2000Y4125D01*
G01X2000Y4125D02*
G01X2100Y4034D01*
G54D26*
G01X1750Y2625D03*
G54D29*
G01X1750Y2625D02*
G01X1125Y2625D01*
G01X1125Y2625D02*
G01X875Y2375D01*
G01X875Y2375D02*
G01X-375Y2375D01*
G01X-375Y2375D02*
G01X-625Y2625D01*
G01X-625Y2625D02*
G01X-875Y2625D01*
G54D26*
G01X-1125Y2875D03*
G54D29*
G01X-875Y2625D02*
G01X-1125Y2875D01*
G54D26*
G01X1500Y1375D03*
G54D29*
G01X1500Y1415D02*
G01X1500Y1375D01*
G01X1500Y1415D02*
G01X1500Y1375D01*
G01X1500Y1375D02*
G01X1834Y1040D01*
G01X1834Y1040D02*
G01X1834Y500D01*
G01X1500Y1415D02*
G01X-40Y1415D01*
G01X-40Y1415D02*
G01X-625Y2000D01*
G01X-625Y2000D02*
G01X-2500Y2000D01*
G01X-2500Y2000D02*
G01X-3000Y2500D01*
G54D26*
G01X-1250Y5000D03*
G54D29*
G01X-1165Y5000D02*
G01X-1250Y5000D01*
G54D26*
G01X-1100Y4300D03*
G54D29*
G01X-1165Y4250D02*
G01X-1100Y4300D01*
G01X-1165Y5000D02*
G01X-1165Y4250D01*
G54D30*
G01X-1500Y16834D02*
G01X-665Y16834D01*
G54D29*
G01X-665Y16834D02*
G01X-625Y16875D01*
G01X-625Y16875D02*
G01X-500Y16790D01*
G54D30*
G01X-6250Y15750D02*
G01X-6250Y16375D01*
G01X-6250Y16375D02*
G01X-5790Y16834D01*
G01X-5790Y16834D02*
G01X-1500Y16834D01*
G54D31*
G01X2034Y8400D02*
G01X2034Y9100D01*
G54D26*
G01X375Y16625D03*
G01X1875Y10500D03*
G54D31*
G01X1875Y10500D02*
G01X2034Y10340D01*
G01X2034Y10340D02*
G01X2034Y9100D01*
G54D26*
G01X-1250Y1500D03*
G54D29*
G01X-1250Y1500D02*
G01X-1165Y1500D01*
G54D26*
G01X-1125Y875D03*
G54D29*
G01X-1125Y875D02*
G01X-1165Y750D01*
G54D31*
G01X-1165Y1500D02*
G01X-1165Y750D01*
G01X-6250Y15750D02*
G01X-6250Y15125D01*
G01X-6250Y15125D02*
G01X-7125Y14250D01*
G54D26*
G01X-7125Y12375D03*
G54D31*
G01X-7125Y14250D02*
G01X-7125Y12375D01*
G54D26*
G01X-4375Y5625D03*
G54D31*
G01X-4375Y5625D02*
G01X-3750Y6250D01*
G01X-3750Y6250D02*
G01X-2500Y6250D01*
G01X-2500Y6250D02*
G01X-1750Y5500D01*
G01X-1750Y5500D02*
G01X-1250Y5500D01*
G01X-1250Y5500D02*
G01X-1165Y5415D01*
G01X-1165Y5415D02*
G01X-1165Y5000D01*
G01X-500Y16790D02*
G01X210Y16790D01*
G01X210Y16790D02*
G01X250Y16750D01*
G01X250Y16750D02*
G01X375Y16625D01*
G54D26*
G01X2000Y3375D03*
G54D29*
G01X2100Y3365D02*
G01X2000Y3375D01*
G54D26*
G01X1625Y5500D03*
G54D29*
G01X1500Y5584D02*
G01X1625Y5500D01*
G54D26*
G01X350Y3250D03*
G01X350Y6600D03*
G54D29*
G01X350Y3250D02*
G01X350Y6600D01*
G54D26*
G01X750Y7375D03*
G54D29*
G01X750Y7375D02*
G01X350Y6975D01*
G01X350Y6975D02*
G01X350Y6600D01*
G54D26*
G01X-350Y3250D03*
G54D29*
G01X-350Y3250D02*
G01X-300Y6350D01*
G01X-300Y6350D02*
G01X-450Y6500D01*
G54D26*
G01X-450Y6600D03*
G54D29*
G01X-450Y6500D02*
G01X-450Y6600D01*
G54D26*
G01X250Y500D03*
G54D29*
G01X250Y500D02*
G01X334Y500D01*
G54D26*
G01X1625Y2000D03*
G54D29*
G01X1500Y2084D02*
G01X1625Y2000D01*
G01X1500Y2084D02*
G01X-334Y2084D01*
G01X-334Y2084D02*
G01X-625Y2250D01*
G01X-625Y2250D02*
G01X-1000Y2250D01*
G54D26*
G01X-1625Y2875D03*
G54D29*
G01X-1000Y2250D02*
G01X-1625Y2875D01*
G01X3500Y11500D02*
G01X3000Y11000D01*
G01X3000Y11000D02*
G01X-250Y11000D01*
G54D26*
G01X-500Y10750D03*
G54D29*
G01X-250Y11000D02*
G01X-500Y10750D01*
G54D26*
G01X-1375Y9875D03*
G54D29*
G01X-1375Y9875D02*
G01X-2250Y9000D01*
G01X-2250Y9000D02*
G01X-2250Y7750D01*
G54D26*
G01X-2000Y7500D03*
G54D29*
G01X-2250Y7750D02*
G01X-2000Y7500D01*
G54D26*
G01X-375Y500D03*
G54D29*
G01X-375Y500D02*
G01X-334Y500D01*
G54D26*
G01X999Y466D03*
G54D32*
G01X1165Y500D02*
G01X999Y466D01*
G54D26*
G01X875Y8875D03*
G54D29*
G01X875Y8875D02*
G01X1000Y9000D01*
G01X1000Y9000D02*
G01X1250Y9000D01*
G01X1250Y9000D02*
G01X1365Y9100D01*
G54D26*
G01X-1500Y9000D03*
G54D29*
G01X-1500Y9000D02*
G01X-1500Y8000D01*
G01X-1500Y8000D02*
G01X-1125Y7625D01*
G01X-1125Y7625D02*
G01X-625Y7625D01*
G54D26*
G01X0Y7000D03*
G54D29*
G01X-625Y7625D02*
G01X0Y7000D01*
G54D26*
G01X1125Y8375D03*
G54D29*
G01X1125Y8375D02*
G01X1375Y8375D01*
G01X1375Y8375D02*
G01X1365Y8400D01*
G01X1365Y8400D02*
G01X1250Y8375D01*
G01X1250Y8375D02*
G01X875Y8375D01*
G01X875Y8375D02*
G01X375Y8875D01*
G01X375Y8875D02*
G01X-1000Y8875D01*
G01X-1000Y8875D02*
G01X-1250Y8625D01*
G01X-1250Y8625D02*
G01X-1250Y8250D01*
G54D26*
G01X-1125Y8125D03*
G54D29*
G01X-1250Y8250D02*
G01X-1125Y8125D01*
G54D26*
G01X-2500Y7125D03*
G01X-3000Y6625D03*
G54D29*
G01X-2500Y7125D02*
G01X-3000Y6625D01*
G01X-5250Y15750D02*
G01X-5250Y15625D01*
G01X-5250Y15625D02*
G01X-4750Y15125D01*
G01X-4750Y15125D02*
G01X-2750Y15125D01*
G01X-2750Y15125D02*
G01X-2500Y15375D01*
G01X-2500Y15375D02*
G01X-1000Y15375D01*
G01X-1000Y15375D02*
G01X-875Y15500D01*
G54D26*
G01X0Y15500D03*
G54D29*
G01X-875Y15500D02*
G01X0Y15500D01*
G54D26*
G01X-1875Y8500D03*
G54D29*
G01X-1875Y8500D02*
G01X-1875Y8000D01*
G01X-1875Y8000D02*
G01X-1250Y7375D01*
G01X-1250Y7375D02*
G01X-750Y7375D01*
G01X-750Y7375D02*
G01X0Y6600D01*
G54D26*
G01X0Y3050D03*
G54D29*
G01X0Y6600D02*
G01X0Y3050D01*
G01X-4250Y15750D02*
G01X-4250Y16125D01*
G01X-4250Y16125D02*
G01X-4000Y16375D01*
G01X-4000Y16375D02*
G01X-3000Y16375D01*
G01X-3000Y16375D02*
G01X-2250Y15625D01*
G01X-2250Y15625D02*
G01X-1125Y15625D01*
G01X-1125Y15625D02*
G01X-875Y15875D01*
G54D26*
G01X250Y15875D03*
G54D29*
G01X-875Y15875D02*
G01X250Y15875D01*
G01X-500Y15000D02*
G01X-625Y15000D01*
G01X-625Y15000D02*
G01X-584Y14959D01*
G54D30*
G01X-584Y14959D02*
G01X-584Y14000D01*
G01X-584Y14000D02*
G01X-1000Y14000D01*
G01X-1000Y14000D02*
G01X-1250Y13750D01*
G01X-1250Y13750D02*
G01X-1250Y12000D01*
G01X-1250Y12000D02*
G01X-1100Y11850D01*
G01X-1100Y11850D02*
G01X-490Y11850D01*
G54D33*
G01X-2750Y12500D03*
G01X-6750Y6500D03*
G01X375Y10125D03*
G01X1500Y10000D03*
G01X-3125Y11250D03*
G01X-750Y6125D03*
G01X-1250Y5875D03*
G01X-1625Y2375D03*
G01X1250Y2920D03*
G01X-5375Y15000D03*
G01X7375Y7500D03*

G04 Draw clearances for text*

G04 -------------- Draw Parts, Pads, Traces, Vias and Text (positive)*
%LPD*%
G04 Draw part P1*
G54D34*
G01X3000Y5500D03*
G54D35*
G01X3000Y4000D03*
G01X3000Y2500D03*
G01X3000Y1000D03*
G04 Draw part U1*
G04 Draw part R3*
G04 Draw part R2*
G54D36*
G01X2100Y4034D03*
G01X2100Y3365D03*
G04 Draw part C3*
G01X1500Y4915D03*
G01X1500Y5584D03*
G04 Draw part C1*
G54D37*
G01X-1165Y750D03*
G01X-1834Y750D03*
G04 Draw part C2*
G01X-1165Y1500D03*
G01X-1834Y1500D03*
G04 Draw part P2*
G54D34*
G01X-3000Y1000D03*
G54D35*
G01X-3000Y2500D03*
G01X-3000Y4000D03*
G01X-3000Y5500D03*
G04 Draw part U2*
G04 Draw part R6*
G54D37*
G01X334Y500D03*
G01X-334Y500D03*
G04 Draw part R5*
G01X1834Y500D03*
G01X1165Y500D03*
G04 Draw part C6*
G54D36*
G01X1500Y1415D03*
G01X1500Y2084D03*
G04 Draw part C4*
G54D37*
G01X-1165Y4250D03*
G01X-1834Y4250D03*
G04 Draw part C5*
G01X-1165Y5000D03*
G01X-1834Y5000D03*
G04 Draw part R1*
G01X2034Y9100D03*
G01X1365Y9100D03*
G04 Draw part R4*
G01X2034Y8400D03*
G01X1365Y8400D03*
G04 Draw part U4*
G04 Draw part J2*
G54D38*
G01X490Y12640D03*
G01X-490Y12640D03*
G01X490Y11850D03*
G54D39*
G01X-490Y11850D03*
G54D40*
G01X2370Y13700D03*
G01X-2370Y13700D03*
G04 Draw part C9*
G04 Draw part C10*
G04 Draw part X1*
G04 Draw part C11*
G04 Draw part C12*
G04 Draw part U3*
G54D41*
G01X-500Y15000D03*
G54D42*
G01X2410Y15890D03*
G54D41*
G01X-500Y16790D03*
G04 Draw part C7*
G54D37*
G01X-584Y14000D03*
G01X84Y14000D03*
G04 Draw part C8*
G54D36*
G01X-1500Y16834D03*
G01X-1500Y16165D03*
G04 Draw part J1*
G54D43*
G01X-7250Y15750D03*
G54D44*
G01X-6250Y15750D03*
G01X-5250Y15750D03*
G01X-4250Y15750D03*
G01X-3250Y15750D03*
G04 Draw part P3*
G54D45*
G01X3500Y7500D03*
G54D46*
G01X3500Y8500D03*
G01X3500Y9500D03*
G01X3500Y10500D03*
G01X3500Y11500D03*
G01X3500Y12500D03*
G04 Draw part TP1*
G54D32*
G01X-3500Y6700D03*
G04 Draw part DIN1*
G04 Draw part DIN2*
G04 Draw part TP2*
G54D25*
G01X5500Y8500D03*
G04 Draw part R7*
G04 Draw part D1G*

G04 Draw traces*
G54D32*
G01X750Y2800D03*
G54D47*
G01X750Y2800D02*
G01X750Y6050D01*
G01X750Y6050D02*
G01X900Y6200D01*
G54D32*
G01X900Y6200D03*
G01X-875Y3250D03*
G54D47*
G01X-875Y3250D02*
G01X-250Y2625D01*
G01X-250Y2625D02*
G01X500Y2625D01*
G01X500Y2625D02*
G01X675Y2800D01*
G01X675Y2800D02*
G01X750Y2800D01*
G54D32*
G01X-875Y8500D03*
G54D47*
G01X-875Y8500D02*
G01X375Y8500D01*
G01X375Y8500D02*
G01X1000Y7875D01*
G01X1000Y7875D02*
G01X2875Y7875D01*
G01X2875Y7875D02*
G01X3500Y8500D01*
G54D32*
G01X875Y1000D03*
G54D47*
G01X875Y1000D02*
G01X-625Y1000D01*
G01X-625Y1000D02*
G01X-750Y875D01*
G01X-750Y875D02*
G01X-750Y375D01*
G01X-750Y375D02*
G01X-875Y250D01*
G01X-875Y250D02*
G01X-2250Y250D01*
G01X-2250Y250D02*
G01X-3000Y1000D01*
G54D32*
G01X-3375Y13250D03*
G54D47*
G01X-3375Y13250D02*
G01X-3000Y12875D01*
G01X-3000Y12875D02*
G01X-2500Y12875D01*
G01X-2500Y12875D02*
G01X-1875Y12250D01*
G01X-1875Y12250D02*
G01X-1875Y11750D01*
G54D32*
G01X-1875Y11750D03*
G54D47*
G01X1500Y4915D02*
G01X1450Y4950D01*
G54D32*
G01X1450Y4950D03*
G54D47*
G01X2100Y4034D02*
G01X2125Y4000D01*
G01X2125Y4000D02*
G01X3000Y4000D01*
G01X1500Y4915D02*
G01X1709Y4915D01*
G01X1709Y4915D02*
G01X2000Y4625D01*
G01X2000Y4625D02*
G01X2000Y4125D01*
G01X2000Y4125D02*
G01X2100Y4034D01*
G54D32*
G01X1750Y2625D03*
G54D47*
G01X1750Y2625D02*
G01X1125Y2625D01*
G01X1125Y2625D02*
G01X875Y2375D01*
G01X875Y2375D02*
G01X-375Y2375D01*
G01X-375Y2375D02*
G01X-625Y2625D01*
G01X-625Y2625D02*
G01X-875Y2625D01*
G01X-875Y2625D02*
G01X-1125Y2875D01*
G54D32*
G01X-1125Y2875D03*
G54D47*
G01X1500Y1415D02*
G01X1500Y1375D01*
G54D32*
G01X1500Y1375D03*
G54D47*
G01X1500Y1415D02*
G01X1500Y1375D01*
G01X1500Y1375D02*
G01X1834Y1040D01*
G01X1834Y1040D02*
G01X1834Y500D01*
G01X1500Y1415D02*
G01X-40Y1415D01*
G01X-40Y1415D02*
G01X-625Y2000D01*
G01X-625Y2000D02*
G01X-2500Y2000D01*
G01X-2500Y2000D02*
G01X-3000Y2500D01*
G01X-1165Y5000D02*
G01X-1250Y5000D01*
G54D32*
G01X-1250Y5000D03*
G54D47*
G01X-1165Y4250D02*
G01X-1100Y4300D01*
G54D32*
G01X-1100Y4300D03*
G54D47*
G01X-1165Y5000D02*
G01X-1165Y4250D01*
G54D29*
G01X-1500Y16834D02*
G01X-665Y16834D01*
G54D47*
G01X-665Y16834D02*
G01X-625Y16875D01*
G01X-625Y16875D02*
G01X-500Y16790D01*
G54D29*
G01X-6250Y15750D02*
G01X-6250Y16375D01*
G01X-6250Y16375D02*
G01X-5790Y16834D01*
G01X-5790Y16834D02*
G01X-1500Y16834D01*
G54D48*
G01X2034Y8400D02*
G01X2034Y9100D01*
G54D32*
G01X375Y16625D03*
G01X1875Y10500D03*
G54D48*
G01X1875Y10500D02*
G01X2034Y10340D01*
G01X2034Y10340D02*
G01X2034Y9100D01*
G54D32*
G01X-1250Y1500D03*
G54D47*
G01X-1250Y1500D02*
G01X-1165Y1500D01*
G54D32*
G01X-1125Y875D03*
G54D47*
G01X-1125Y875D02*
G01X-1165Y750D01*
G54D48*
G01X-1165Y1500D02*
G01X-1165Y750D01*
G01X-6250Y15750D02*
G01X-6250Y15125D01*
G01X-6250Y15125D02*
G01X-7125Y14250D01*
G01X-7125Y14250D02*
G01X-7125Y12375D01*
G54D32*
G01X-7125Y12375D03*
G01X-4375Y5625D03*
G54D48*
G01X-4375Y5625D02*
G01X-3750Y6250D01*
G01X-3750Y6250D02*
G01X-2500Y6250D01*
G01X-2500Y6250D02*
G01X-1750Y5500D01*
G01X-1750Y5500D02*
G01X-1250Y5500D01*
G01X-1250Y5500D02*
G01X-1165Y5415D01*
G01X-1165Y5415D02*
G01X-1165Y5000D01*
G01X-500Y16790D02*
G01X210Y16790D01*
G01X210Y16790D02*
G01X250Y16750D01*
G01X250Y16750D02*
G01X375Y16625D01*
G54D47*
G01X2100Y3365D02*
G01X2000Y3375D01*
G54D32*
G01X2000Y3375D03*
G54D47*
G01X1500Y5584D02*
G01X1625Y5500D01*
G54D32*
G01X1625Y5500D03*
G01X350Y3250D03*
G54D47*
G01X350Y3250D02*
G01X350Y6600D01*
G54D32*
G01X350Y6600D03*
G01X750Y7375D03*
G54D47*
G01X750Y7375D02*
G01X350Y6975D01*
G01X350Y6975D02*
G01X350Y6600D01*
G54D32*
G01X-350Y3250D03*
G54D47*
G01X-350Y3250D02*
G01X-300Y6350D01*
G01X-300Y6350D02*
G01X-450Y6500D01*
G01X-450Y6500D02*
G01X-450Y6600D01*
G54D32*
G01X-450Y6600D03*
G01X250Y500D03*
G54D47*
G01X250Y500D02*
G01X334Y500D01*
G01X1500Y2084D02*
G01X1625Y2000D01*
G54D32*
G01X1625Y2000D03*
G54D47*
G01X1500Y2084D02*
G01X-334Y2084D01*
G01X-334Y2084D02*
G01X-625Y2250D01*
G01X-625Y2250D02*
G01X-1000Y2250D01*
G01X-1000Y2250D02*
G01X-1625Y2875D01*
G54D32*
G01X-1625Y2875D03*
G54D47*
G01X3500Y11500D02*
G01X3000Y11000D01*
G01X3000Y11000D02*
G01X-250Y11000D01*
G01X-250Y11000D02*
G01X-500Y10750D01*
G54D32*
G01X-500Y10750D03*
G01X-1375Y9875D03*
G54D47*
G01X-1375Y9875D02*
G01X-2250Y9000D01*
G01X-2250Y9000D02*
G01X-2250Y7750D01*
G01X-2250Y7750D02*
G01X-2000Y7500D01*
G54D32*
G01X-2000Y7500D03*
G01X-375Y500D03*
G54D47*
G01X-375Y500D02*
G01X-334Y500D01*
G54D49*
G01X1165Y500D02*
G01X999Y466D01*
G54D32*
G01X999Y466D03*
G01X875Y8875D03*
G54D47*
G01X875Y8875D02*
G01X1000Y9000D01*
G01X1000Y9000D02*
G01X1250Y9000D01*
G01X1250Y9000D02*
G01X1365Y9100D01*
G54D32*
G01X-1500Y9000D03*
G54D47*
G01X-1500Y9000D02*
G01X-1500Y8000D01*
G01X-1500Y8000D02*
G01X-1125Y7625D01*
G01X-1125Y7625D02*
G01X-625Y7625D01*
G01X-625Y7625D02*
G01X0Y7000D01*
G54D32*
G01X0Y7000D03*
G01X1125Y8375D03*
G54D47*
G01X1125Y8375D02*
G01X1375Y8375D01*
G01X1375Y8375D02*
G01X1365Y8400D01*
G01X1365Y8400D02*
G01X1250Y8375D01*
G01X1250Y8375D02*
G01X875Y8375D01*
G01X875Y8375D02*
G01X375Y8875D01*
G01X375Y8875D02*
G01X-1000Y8875D01*
G01X-1000Y8875D02*
G01X-1250Y8625D01*
G01X-1250Y8625D02*
G01X-1250Y8250D01*
G01X-1250Y8250D02*
G01X-1125Y8125D01*
G54D32*
G01X-1125Y8125D03*
G01X-2500Y7125D03*
G54D47*
G01X-2500Y7125D02*
G01X-3000Y6625D01*
G54D32*
G01X-3000Y6625D03*
G54D47*
G01X-5250Y15750D02*
G01X-5250Y15625D01*
G01X-5250Y15625D02*
G01X-4750Y15125D01*
G01X-4750Y15125D02*
G01X-2750Y15125D01*
G01X-2750Y15125D02*
G01X-2500Y15375D01*
G01X-2500Y15375D02*
G01X-1000Y15375D01*
G01X-1000Y15375D02*
G01X-875Y15500D01*
G01X-875Y15500D02*
G01X0Y15500D01*
G54D32*
G01X0Y15500D03*
G01X-1875Y8500D03*
G54D47*
G01X-1875Y8500D02*
G01X-1875Y8000D01*
G01X-1875Y8000D02*
G01X-1250Y7375D01*
G01X-1250Y7375D02*
G01X-750Y7375D01*
G01X-750Y7375D02*
G01X0Y6600D01*
G01X0Y6600D02*
G01X0Y3050D01*
G54D32*
G01X0Y3050D03*
G54D47*
G01X-4250Y15750D02*
G01X-4250Y16125D01*
G01X-4250Y16125D02*
G01X-4000Y16375D01*
G01X-4000Y16375D02*
G01X-3000Y16375D01*
G01X-3000Y16375D02*
G01X-2250Y15625D01*
G01X-2250Y15625D02*
G01X-1125Y15625D01*
G01X-1125Y15625D02*
G01X-875Y15875D01*
G01X-875Y15875D02*
G01X250Y15875D01*
G54D32*
G01X250Y15875D03*
G54D47*
G01X-500Y15000D02*
G01X-625Y15000D01*
G01X-625Y15000D02*
G01X-584Y14959D01*
G54D29*
G01X-584Y14959D02*
G01X-584Y14000D01*
G01X-584Y14000D02*
G01X-1000Y14000D01*
G01X-1000Y14000D02*
G01X-1250Y13750D01*
G01X-1250Y13750D02*
G01X-1250Y12000D01*
G01X-1250Y12000D02*
G01X-1100Y11850D01*
G01X-1100Y11850D02*
G01X-490Y11850D01*
G01X-1834Y4250D02*
G01X-1834Y5000D01*
G54D47*
G01X-1834Y5000D02*
G01X-1834Y5084D01*
G01X-1834Y5084D02*
G01X-1875Y5125D01*
G01X-1834Y4250D02*
G01X-1834Y4165D01*
G01X-1834Y4165D02*
G01X-1875Y4125D01*
G01X2410Y15890D02*
G01X2500Y15125D01*
G01X2500Y15125D02*
G01X2370Y14995D01*
G54D28*
G01X2370Y14995D02*
G01X2370Y13700D01*
G54D29*
G01X-1500Y16165D02*
G01X-1959Y16165D01*
G01X84Y14000D02*
G01X500Y14000D01*
G01X-490Y12640D02*
G01X-490Y13240D01*
G54D32*
G01X-2750Y12500D03*
G01X-6750Y6500D03*
G54D29*
G01X3500Y7500D02*
G01X4000Y7500D01*
G01X-7250Y15750D02*
G01X-7250Y15250D01*
G54D32*
G01X375Y10125D03*
G01X1500Y10000D03*
G01X-3125Y11250D03*
G01X-750Y6125D03*
G01X-1250Y5875D03*
G01X-1625Y2375D03*
G54D48*
G01X-1834Y750D02*
G01X-1834Y1500D01*
G54D47*
G01X-1834Y1500D02*
G01X-1834Y1165D01*
G01X-1834Y1165D02*
G01X-1875Y1125D01*
G54D32*
G01X1250Y2920D03*
G54D47*
G01X-1834Y5000D02*
G01X-1834Y4665D01*
G01X-1834Y4665D02*
G01X-1875Y4625D01*
G54D46*
G01X-2370Y13700D02*
G01X-2370Y13745D01*
G01X-2370Y13745D02*
G01X-3125Y14500D01*
G01X-3125Y14500D02*
G01X-4000Y14500D01*
G54D32*
G01X-5375Y15000D03*
G54D48*
G01X-1834Y1500D02*
G01X-2250Y1500D01*
G01X-2250Y1500D02*
G01X-2375Y1625D01*
G01X-1834Y4250D02*
G01X-1834Y4084D01*
G01X-1834Y4084D02*
G01X-1375Y3625D01*
G54D47*
G01X2410Y15890D02*
G01X2410Y15910D01*
G01X2410Y15910D02*
G01X3125Y16625D01*
G54D30*
G01X3125Y16625D02*
G01X4375Y16625D01*
G54D47*
G01X2410Y15890D02*
G01X3390Y15890D01*
G01X3390Y15890D02*
G01X3500Y16000D01*
G54D30*
G01X3500Y16000D02*
G01X4375Y16000D01*
G54D47*
G01X2410Y15890D02*
G01X2610Y15890D01*
G01X2610Y15890D02*
G01X3250Y15250D01*
G54D30*
G01X3250Y15250D02*
G01X4375Y15250D01*
G54D32*
G01X7375Y7500D03*

G04 Draw Text*
M00*
M02*
