;Holesize 1 =   48.0 PLATED MILS
;Holesize 2 =   36.0 PLATED MILS
;Holesize 3 =   91.0 PLATED MILS
;Holesize 4 =   42.0 PLATED MILS
;Holesize 5 =   43.0 PLATED MILS
;Holesize 6 =   14.0 PLATED MILS
;Holesize 7 =  150.0 PLATED MILS
M48
INCH,00.0000
T01C0.048
T02C0.036
T03C0.091
T04C0.042
T05C0.043
T06C0.014
T07C0.150
%
G05
G90
T01
X003000Y005500
X003000Y004000
X003000Y002500
X003000Y001000
X-003000Y001000
X-003000Y002500
X-003000Y004000
X-003000Y005500
T02
X000490Y012640
X-000490Y012640
X000490Y011850
X-000490Y011850
T03
X002370Y013700
X-002370Y013700
T04
X-007250Y015750
X-006250Y015750
X-005250Y015750
X-004250Y015750
X-003250Y015750
X005500Y008500
T05
X003500Y007500
X003500Y008500
X003500Y009500
X003500Y010500
X003500Y011500
X003500Y012500
T06
X-003500Y006700
X000750Y002800
X000900Y006200
X-000875Y003250
X-000875Y008500
X000875Y001000
X-003375Y013250
X-001875Y011750
X001450Y004950
X001750Y002625
X-001125Y002875
X001500Y001375
X-001250Y005000
X-001100Y004300
X000375Y016625
X001875Y010500
X-001250Y001500
X-001125Y000875
X-007125Y012375
X-004375Y005625
X002000Y003375
X001625Y005500
X000350Y003250
X000350Y006600
X000750Y007375
X-000350Y003250
X-000450Y006600
X000250Y000500
X001625Y002000
X-001625Y002875
X-000500Y010750
X-001375Y009875
X-002000Y007500
X-000375Y000500
X000999Y000466
X000875Y008875
X-001500Y009000
X000000Y007000
X001125Y008375
X-001125Y008125
X-002500Y007125
X-003000Y006625
X000000Y015500
X-001875Y008500
X000000Y003050
X000250Y015875
X-002750Y012500
X-006750Y006500
X000375Y010125
X001500Y010000
X-003125Y011250
X-000750Y006125
X-001250Y005875
X-001625Y002375
X001250Y002920
X-005375Y015000
X007375Y007500
T07
X-006000Y013670
X-006000Y003828
X006000Y003830
X006000Y013671
M30
