G04 FreePCB version 1.359*
G04 C:\freepcb\projects\thermokUSB-RTD2_rev1\CAM\top_solder_mask.grb*
G04 top solder mask layer *
G04 Scale: 100 percent, Rotated: No, Reflected: No *
%FSLAX24Y24*%
%MOIN*%
%LN top solder mask *%
G04 Rounded Rectangle Macro, params: W/2, H/2, R *
%AMRNDREC*
21,1,$1+$1,$2+$2-$3-$3,0,0,0*
21,1,$1+$1-$3-$3,$2+$2,0,0,0*
1,1,$3+$3,$1-$3,$2-$3*
1,1,$3+$3,$3-$1,$2-$3*
1,1,$3+$3,$1-$3,$3-$2*
1,1,$3+$3,$3-$1,$3-$2*%
G04 Rectangular Thermal Macro, params: W/2, H/2, T/2 *
%AMRECTHERM*
$4=$3/2*
21,1,$1-$3,$2-$3,0-$1/2-$4,0-$2/2-$4,0*
21,1,$1-$3,$2-$3,0-$1/2-$4,$2/2+$4,0*
21,1,$1-$3,$2-$3,$1/2+$4,0-$2/2-$4,0*
21,1,$1-$3,$2-$3,$1/2+$4,$2/2+$4,0*%
%ADD10C,0.005000*%
%ADD11RNDREC,0.047500X0.047500X0.018000*%
%ADD12C,0.095000*%
%ADD13R,0.029780X0.053402*%
%ADD14R,0.053402X0.029780*%
%ADD15R,0.143953X0.143953*%
%ADD16R,0.071118X0.067181*%
%ADD17R,0.084898X0.031748*%
%ADD18C,0.071000*%
%ADD19RNDREC,0.035500X0.035500X0.023000*%
%ADD20RNDREC,0.068000X0.068000X0.028000*%
%ADD21R,0.067181X0.071118*%
%ADD22R,0.099000X0.236000*%
%ADD23R,0.081000X0.081000*%
%ADD24C,0.081000*%
%ADD25R,0.076000X0.076000*%
%ADD26C,0.076000*%
%ADD27C,0.044000*%
%ADD28C,0.166000*%
%ADD29C,0.096000*%
G90*
G70D02*

G04 Step and Repeat for panelization *

G04 ----------------------- Draw board outline (positive)*
%LPD*%
G54D10*
G01X0Y0D02*
G01X-8000Y0D01*
G04 end of side 1*
G01X-8000Y17500D01*
G04 end of side 2*
G01X8000Y17500D01*
G04 end of side 3*
G01X8000Y0D01*
G04 end of side 4*
G01X0Y0D01*

G04 -------------- Draw Parts, Pads, Traces, Vias and Text (positive)*
%LPD*%
G04 Draw part P1*
G54D11*
G01X3000Y5500D03*
G54D12*
G01X3000Y4000D03*
G01X3000Y2500D03*
G01X3000Y1000D03*
G04 Draw part U1*
G54D13*
G01X-511Y4328D03*
G01X-255Y4328D03*
G01X0Y4328D03*
G01X255Y4328D03*
G01X511Y4328D03*
G54D14*
G01X921Y4738D03*
G01X921Y4994D03*
G01X921Y5250D03*
G01X921Y5505D03*
G01X921Y5761D03*
G54D13*
G01X511Y6171D03*
G01X255Y6171D03*
G01X0Y6171D03*
G01X-255Y6171D03*
G01X-511Y6171D03*
G54D14*
G01X-921Y5761D03*
G01X-921Y5505D03*
G01X-921Y5250D03*
G01X-921Y4994D03*
G01X-921Y4738D03*
G54D15*
G01X0Y5250D03*
G04 Draw part R3*
G54D16*
G01X1200Y4134D03*
G01X1200Y3465D03*
G04 Draw part R2*
G04 Draw part C3*
G04 Draw part C1*
G04 Draw part C2*
G04 Draw part P2*
G54D11*
G01X-3000Y1000D03*
G54D12*
G01X-3000Y2500D03*
G01X-3000Y4000D03*
G01X-3000Y5500D03*
G04 Draw part U2*
G54D13*
G01X-511Y828D03*
G01X-255Y828D03*
G01X0Y828D03*
G01X255Y828D03*
G01X511Y828D03*
G54D14*
G01X921Y1238D03*
G01X921Y1494D03*
G01X921Y1750D03*
G01X921Y2005D03*
G01X921Y2261D03*
G54D13*
G01X511Y2671D03*
G01X255Y2671D03*
G01X0Y2671D03*
G01X-255Y2671D03*
G01X-511Y2671D03*
G54D14*
G01X-921Y2261D03*
G01X-921Y2005D03*
G01X-921Y1750D03*
G01X-921Y1494D03*
G01X-921Y1238D03*
G54D15*
G01X0Y1750D03*
G04 Draw part R6*
G04 Draw part R5*
G04 Draw part C6*
G04 Draw part C4*
G04 Draw part C5*
G04 Draw part R1*
G04 Draw part R4*
G04 Draw part U4*
G54D17*
G01X-2667Y9901D03*
G01X-2667Y9645D03*
G01X-2667Y9389D03*
G01X-2667Y9133D03*
G01X-2667Y8877D03*
G01X-2667Y8622D03*
G01X-2667Y8366D03*
G01X-2667Y8110D03*
G01X-2667Y7854D03*
G01X-2667Y7598D03*
G01X167Y7598D03*
G01X167Y7854D03*
G01X167Y8110D03*
G01X167Y8366D03*
G01X167Y8622D03*
G01X167Y8877D03*
G01X167Y9133D03*
G01X167Y9389D03*
G01X167Y9645D03*
G01X167Y9901D03*
G04 Draw part J2*
G54D18*
G01X490Y12640D03*
G01X-490Y12640D03*
G01X490Y11850D03*
G54D19*
G01X-490Y11850D03*
G54D20*
G01X2370Y13700D03*
G01X-2370Y13700D03*
G04 Draw part C9*
G54D21*
G01X-2415Y10750D03*
G01X-3084Y10750D03*
G04 Draw part C10*
G01X1065Y9400D03*
G01X1734Y9400D03*
G04 Draw part X1*
G54D22*
G01X-4750Y11370D03*
G01X-4750Y7630D03*
G04 Draw part C11*
G54D21*
G01X-3834Y12500D03*
G01X-3165Y12500D03*
G04 Draw part C12*
G01X-5665Y6500D03*
G01X-6334Y6500D03*
G04 Draw part U3*
G04 Draw part C7*
G04 Draw part C8*
G04 Draw part J1*
G54D23*
G01X-7250Y15750D03*
G54D24*
G01X-6250Y15750D03*
G01X-5250Y15750D03*
G01X-4250Y15750D03*
G01X-3250Y15750D03*
G04 Draw part P3*
G54D25*
G01X3500Y7500D03*
G54D26*
G01X3500Y8500D03*
G01X3500Y9500D03*
G01X3500Y10500D03*
G01X3500Y11500D03*
G01X3500Y12500D03*
G04 Draw part TP1*
G54D27*
G01X-3500Y6700D03*
G04 Draw part DIN1*
G54D28*
G01X-6000Y13670D03*
G01X-6000Y3828D03*
G04 Draw part DIN2*
G01X6000Y3830D03*
G01X6000Y13671D03*
G04 Draw part TP2*
G54D29*
G01X5500Y8500D03*
G04 Draw part R7*
G54D21*
G01X4665Y7500D03*
G01X5334Y7500D03*
G04 Draw part D1G*
G01X6125Y7500D03*
G01X6874Y7500D03*

G04 Draw traces*
G54D27*
G01X750Y2800D03*
G01X900Y6200D03*
G01X-875Y3250D03*
G01X-875Y8500D03*
G01X875Y1000D03*
G01X-3375Y13250D03*
G01X-1875Y11750D03*
G01X1450Y4950D03*
G01X1750Y2625D03*
G01X-1125Y2875D03*
G01X1500Y1375D03*
G01X-1250Y5000D03*
G01X-1100Y4300D03*
G01X375Y16625D03*
G01X1875Y10500D03*
G01X-1250Y1500D03*
G01X-1125Y875D03*
G01X-7125Y12375D03*
G01X-4375Y5625D03*
G01X2000Y3375D03*
G01X1625Y5500D03*
G01X350Y3250D03*
G01X350Y6600D03*
G01X750Y7375D03*
G01X-350Y3250D03*
G01X-450Y6600D03*
G01X250Y500D03*
G01X1625Y2000D03*
G01X-1625Y2875D03*
G01X-500Y10750D03*
G01X-1375Y9875D03*
G01X-2000Y7500D03*
G01X-375Y500D03*
G01X999Y466D03*
G01X875Y8875D03*
G01X-1500Y9000D03*
G01X0Y7000D03*
G01X1125Y8375D03*
G01X-1125Y8125D03*
G01X-2500Y7125D03*
G01X-3000Y6625D03*
G01X0Y15500D03*
G01X-1875Y8500D03*
G01X0Y3050D03*
G01X250Y15875D03*
G01X-2750Y12500D03*
G01X-6750Y6500D03*
G01X375Y10125D03*
G01X1500Y10000D03*
G01X-3125Y11250D03*
G01X-750Y6125D03*
G01X-1250Y5875D03*
G01X-1625Y2375D03*
G01X1250Y2920D03*
G01X-5375Y15000D03*
G01X7375Y7500D03*

G04 Draw Text*

G04 Draw solder mask cutouts*
M00*
M02*
