G04 FreePCB version 1.359*
G04 C:\freepcb\projects\thermokUSB-RTD2_rev1\CAM\top_copper.grb*
G04 top copper layer *
G04 Scale: 100 percent, Rotated: No, Reflected: No *
%FSLAX24Y24*%
%MOIN*%
%LN top copper *%
G04 Rounded Rectangle Macro, params: W/2, H/2, R *
%AMRNDREC*
21,1,$1+$1,$2+$2-$3-$3,0,0,0*
21,1,$1+$1-$3-$3,$2+$2,0,0,0*
1,1,$3+$3,$1-$3,$2-$3*
1,1,$3+$3,$3-$1,$2-$3*
1,1,$3+$3,$1-$3,$3-$2*
1,1,$3+$3,$3-$1,$3-$2*%
G04 Rectangular Thermal Macro, params: W/2, H/2, T/2 *
%AMRECTHERM*
$4=$3/2*
21,1,$1-$3,$2-$3,0-$1/2-$4,0-$2/2-$4,0*
21,1,$1-$3,$2-$3,0-$1/2-$4,$2/2+$4,0*
21,1,$1-$3,$2-$3,$1/2+$4,0-$2/2-$4,0*
21,1,$1-$3,$2-$3,$1/2+$4,$2/2+$4,0*%
%ADD10C,0.005000*%
%ADD11RNDREC,0.039500X0.039500X0.010000*%
%ADD12C,0.079000*%
%ADD13R,0.013780X0.037402*%
%ADD14R,0.037402X0.013780*%
%ADD15R,0.127953X0.127953*%
%ADD16R,0.055118X0.051181*%
%ADD17R,0.068898X0.015748*%
%ADD18C,0.055000*%
%ADD19RNDREC,0.027500X0.027500X0.015000*%
%ADD20RNDREC,0.060000X0.060000X0.020000*%
%ADD21R,0.051181X0.055118*%
%ADD22R,0.083000X0.220000*%
%ADD23R,0.065000X0.065000*%
%ADD24C,0.065000*%
%ADD25R,0.060000X0.060000*%
%ADD26C,0.060000*%
%ADD27C,0.028000*%
%ADD28C,0.080000*%
%ADD29C,0.010000*%
%ADD30C,0.025000*%
%ADD31C,0.015000*%
%ADD32C,0.008000*%
%ADD33C,0.030000*%
G90*
G70D02*

G04 Step and Repeat for panelization *

G04 ----------------------- Draw board outline (positive)*
%LPD*%
G54D10*
G01X0Y0D02*
G01X-8000Y0D01*
G04 end of side 1*
G01X-8000Y17500D01*
G04 end of side 2*
G01X8000Y17500D01*
G04 end of side 3*
G01X8000Y0D01*
G04 end of side 4*
G01X0Y0D01*

G04 -------------- Draw Parts, Pads, Traces, Vias and Text (positive)*
%LPD*%
G04 Draw part P1*
G54D11*
G01X3000Y5500D03*
G54D12*
G01X3000Y4000D03*
G01X3000Y2500D03*
G01X3000Y1000D03*
G04 Draw part U1*
G54D13*
G01X-511Y4328D03*
G01X-255Y4328D03*
G01X0Y4328D03*
G01X255Y4328D03*
G01X511Y4328D03*
G54D14*
G01X921Y4738D03*
G01X921Y4994D03*
G01X921Y5250D03*
G01X921Y5505D03*
G01X921Y5761D03*
G54D13*
G01X511Y6171D03*
G01X255Y6171D03*
G01X0Y6171D03*
G01X-255Y6171D03*
G01X-511Y6171D03*
G54D14*
G01X-921Y5761D03*
G01X-921Y5505D03*
G01X-921Y5250D03*
G01X-921Y4994D03*
G01X-921Y4738D03*
G54D15*
G01X0Y5250D03*
G04 Draw part R3*
G54D16*
G01X1200Y4134D03*
G01X1200Y3465D03*
G04 Draw part R2*
G04 Draw part C3*
G04 Draw part C1*
G04 Draw part C2*
G04 Draw part P2*
G54D11*
G01X-3000Y1000D03*
G54D12*
G01X-3000Y2500D03*
G01X-3000Y4000D03*
G01X-3000Y5500D03*
G04 Draw part U2*
G54D13*
G01X-511Y828D03*
G01X-255Y828D03*
G01X0Y828D03*
G01X255Y828D03*
G01X511Y828D03*
G54D14*
G01X921Y1238D03*
G01X921Y1494D03*
G01X921Y1750D03*
G01X921Y2005D03*
G01X921Y2261D03*
G54D13*
G01X511Y2671D03*
G01X255Y2671D03*
G01X0Y2671D03*
G01X-255Y2671D03*
G01X-511Y2671D03*
G54D14*
G01X-921Y2261D03*
G01X-921Y2005D03*
G01X-921Y1750D03*
G01X-921Y1494D03*
G01X-921Y1238D03*
G54D15*
G01X0Y1750D03*
G04 Draw part R6*
G04 Draw part R5*
G04 Draw part C6*
G04 Draw part C4*
G04 Draw part C5*
G04 Draw part R1*
G04 Draw part R4*
G04 Draw part U4*
G54D17*
G01X-2667Y9901D03*
G01X-2667Y9645D03*
G01X-2667Y9389D03*
G01X-2667Y9133D03*
G01X-2667Y8877D03*
G01X-2667Y8622D03*
G01X-2667Y8366D03*
G01X-2667Y8110D03*
G01X-2667Y7854D03*
G01X-2667Y7598D03*
G01X167Y7598D03*
G01X167Y7854D03*
G01X167Y8110D03*
G01X167Y8366D03*
G01X167Y8622D03*
G01X167Y8877D03*
G01X167Y9133D03*
G01X167Y9389D03*
G01X167Y9645D03*
G01X167Y9901D03*
G04 Draw part J2*
G54D18*
G01X490Y12640D03*
G01X-490Y12640D03*
G01X490Y11850D03*
G54D19*
G01X-490Y11850D03*
G54D20*
G01X2370Y13700D03*
G01X-2370Y13700D03*
G04 Draw part C9*
G54D21*
G01X-2415Y10750D03*
G01X-3084Y10750D03*
G04 Draw part C10*
G01X1065Y9400D03*
G01X1734Y9400D03*
G04 Draw part X1*
G54D22*
G01X-4750Y11370D03*
G01X-4750Y7630D03*
G04 Draw part C11*
G54D21*
G01X-3834Y12500D03*
G01X-3165Y12500D03*
G04 Draw part C12*
G01X-5665Y6500D03*
G01X-6334Y6500D03*
G04 Draw part U3*
G04 Draw part C7*
G04 Draw part C8*
G04 Draw part J1*
G54D23*
G01X-7250Y15750D03*
G54D24*
G01X-6250Y15750D03*
G01X-5250Y15750D03*
G01X-4250Y15750D03*
G01X-3250Y15750D03*
G04 Draw part P3*
G54D25*
G01X3500Y7500D03*
G54D26*
G01X3500Y8500D03*
G01X3500Y9500D03*
G01X3500Y10500D03*
G01X3500Y11500D03*
G01X3500Y12500D03*
G04 Draw part TP1*
G54D27*
G01X-3500Y6700D03*
G04 Draw part DIN1*
G04 Draw part DIN2*
G04 Draw part TP2*
G54D28*
G01X5500Y8500D03*
G04 Draw part R7*
G54D21*
G01X4665Y7500D03*
G01X5334Y7500D03*
G04 Draw part D1G*
G01X6125Y7500D03*
G01X6874Y7500D03*

G04 Draw traces*
G54D29*
G01X511Y2671D02*
G01X621Y2671D01*
G01X621Y2671D02*
G01X750Y2800D01*
G54D27*
G01X750Y2800D03*
G01X900Y6200D03*
G54D29*
G01X900Y6200D02*
G01X550Y6200D01*
G01X550Y6200D02*
G01X511Y6171D01*
G01X-2667Y7854D02*
G01X-3145Y7854D01*
G01X-3145Y7854D02*
G01X-3250Y7750D01*
G01X-3250Y7750D02*
G01X-3250Y7375D01*
G01X-3250Y7375D02*
G01X-2125Y6250D01*
G01X-2125Y6250D02*
G01X-2125Y4500D01*
G01X-2125Y4500D02*
G01X-875Y3250D01*
G54D27*
G01X-875Y3250D03*
G54D29*
G01X921Y4738D02*
G01X1211Y4738D01*
G01X1211Y4738D02*
G01X1350Y4600D01*
G01X1350Y4600D02*
G01X2100Y4600D01*
G01X2100Y4600D02*
G01X3000Y5500D01*
G01X921Y4738D02*
G01X875Y4625D01*
G01X875Y4625D02*
G01X578Y4328D01*
G01X578Y4328D02*
G01X511Y4328D01*
G01X-2667Y8110D02*
G01X-1764Y8110D01*
G01X-1764Y8110D02*
G01X-1375Y8500D01*
G01X-1375Y8500D02*
G01X-875Y8500D01*
G54D27*
G01X-875Y8500D03*
G54D29*
G01X4665Y7500D02*
G01X4665Y7959D01*
G01X4665Y7959D02*
G01X4125Y8500D01*
G01X4125Y8500D02*
G01X3625Y8500D01*
G01X3625Y8500D02*
G01X3500Y8500D01*
G01X921Y1238D02*
G01X921Y1046D01*
G01X921Y1046D02*
G01X703Y828D01*
G01X703Y828D02*
G01X511Y828D01*
G01X511Y828D02*
G01X500Y875D01*
G01X500Y875D02*
G01X750Y875D01*
G01X750Y875D02*
G01X875Y1000D01*
G54D27*
G01X875Y1000D03*
G54D29*
G01X-3250Y15750D02*
G01X-3250Y14750D01*
G01X-3250Y14750D02*
G01X-3375Y14625D01*
G01X-3375Y14625D02*
G01X-3375Y13250D01*
G54D27*
G01X-3375Y13250D03*
G01X-1875Y11750D03*
G54D29*
G01X-1875Y11750D02*
G01X-1875Y9250D01*
G01X-1875Y9250D02*
G01X-1991Y9133D01*
G01X-1991Y9133D02*
G01X-2667Y9133D01*
G54D30*
G01X5500Y8500D02*
G01X4500Y9500D01*
G01X4500Y9500D02*
G01X3500Y9500D01*
G54D29*
G01X921Y5505D02*
G01X1130Y5505D01*
G01X1130Y5505D02*
G01X2000Y6375D01*
G01X2000Y6375D02*
G01X3875Y6375D01*
G01X3875Y6375D02*
G01X4125Y6125D01*
G01X4125Y6125D02*
G01X4125Y2125D01*
G01X4125Y2125D02*
G01X3000Y1000D01*
G54D27*
G01X1450Y4950D03*
G54D29*
G01X1450Y4950D02*
G01X1405Y4994D01*
G01X1405Y4994D02*
G01X921Y4994D01*
G01X921Y2005D02*
G01X1130Y2005D01*
G01X1130Y2005D02*
G01X1750Y2625D01*
G54D27*
G01X1750Y2625D03*
G01X-1125Y2875D03*
G54D29*
G01X-1125Y2875D02*
G01X-1875Y3625D01*
G01X-1875Y3625D02*
G01X-2000Y3625D01*
G01X-2000Y3625D02*
G01X-2375Y4000D01*
G01X-2375Y4000D02*
G01X-2375Y4875D01*
G01X-2375Y4875D02*
G01X-3000Y5500D01*
G01X255Y4328D02*
G01X0Y4328D01*
G01X255Y4328D02*
G01X255Y3994D01*
G01X255Y3994D02*
G01X375Y3875D01*
G01X375Y3875D02*
G01X625Y3875D01*
G01X625Y3875D02*
G01X884Y4134D01*
G01X884Y4134D02*
G01X1200Y4134D01*
G01X5334Y7500D02*
G01X6125Y7500D01*
G54D27*
G01X1500Y1375D03*
G54D29*
G01X1500Y1375D02*
G01X1380Y1494D01*
G01X1380Y1494D02*
G01X921Y1494D01*
G54D27*
G01X-1250Y5000D03*
G54D29*
G01X-1250Y5000D02*
G01X-1244Y4994D01*
G01X-1244Y4994D02*
G01X-921Y4994D01*
G54D27*
G01X-1100Y4300D03*
G54D29*
G01X-1100Y4300D02*
G01X-921Y4478D01*
G01X-921Y4478D02*
G01X-921Y4738D01*
G01X-2415Y10750D02*
G01X-2500Y10625D01*
G01X-2500Y10625D02*
G01X-2500Y10250D01*
G01X-2500Y10250D02*
G01X-2667Y10082D01*
G01X-2667Y10082D02*
G01X-2667Y9901D01*
G54D30*
G01X-2415Y10750D02*
G01X-2415Y11709D01*
G01X-2415Y11709D02*
G01X-1250Y12875D01*
G01X-1250Y12875D02*
G01X-1250Y15000D01*
G01X-1250Y15000D02*
G01X375Y16625D01*
G54D27*
G01X375Y16625D03*
G54D30*
G01X375Y16625D02*
G01X1125Y15875D01*
G01X1125Y15875D02*
G01X1125Y13250D01*
G01X1125Y13250D02*
G01X1875Y12500D01*
G01X1875Y12500D02*
G01X1875Y10500D01*
G54D27*
G01X1875Y10500D03*
G54D29*
G01X-921Y1494D02*
G01X-1244Y1494D01*
G01X-1244Y1494D02*
G01X-1250Y1500D01*
G54D27*
G01X-1250Y1500D03*
G54D29*
G01X-921Y1238D02*
G01X-921Y1078D01*
G01X-921Y1078D02*
G01X-1125Y875D01*
G54D27*
G01X-1125Y875D03*
G01X-7125Y12375D03*
G54D30*
G01X-7125Y12375D02*
G01X-7125Y5875D01*
G01X-7125Y5875D02*
G01X-6875Y5625D01*
G01X-6875Y5625D02*
G01X-4375Y5625D01*
G54D27*
G01X-4375Y5625D03*
G54D29*
G01X-921Y1494D02*
G01X-1244Y1494D01*
G54D31*
G01X-1244Y1494D02*
G01X-1500Y1750D01*
G01X-1500Y1750D02*
G01X-2125Y1750D01*
G54D30*
G01X-2125Y1750D02*
G01X-3500Y1750D01*
G01X-3500Y1750D02*
G01X-4375Y2625D01*
G01X-4375Y2625D02*
G01X-4375Y5625D01*
G54D29*
G01X-511Y4328D02*
G01X-255Y4328D01*
G01X-255Y4328D02*
G01X-250Y4375D01*
G01X-250Y4375D02*
G01X-250Y3875D01*
G01X-250Y3875D02*
G01X0Y3625D01*
G01X0Y3625D02*
G01X500Y3625D01*
G01X500Y3625D02*
G01X659Y3465D01*
G01X659Y3465D02*
G01X1200Y3465D01*
G54D27*
G01X2000Y3375D03*
G54D29*
G01X2000Y3375D02*
G01X1909Y3465D01*
G01X1909Y3465D02*
G01X1200Y3465D01*
G54D27*
G01X1625Y5500D03*
G54D29*
G01X1625Y5500D02*
G01X1375Y5250D01*
G01X1375Y5250D02*
G01X921Y5250D01*
G01X3000Y2500D02*
G01X3750Y3250D01*
G01X3750Y3250D02*
G01X3750Y5875D01*
G01X3750Y5875D02*
G01X3500Y6125D01*
G01X3500Y6125D02*
G01X2250Y6125D01*
G01X2250Y6125D02*
G01X1625Y5500D01*
G01X255Y2671D02*
G01X256Y2900D01*
G01X256Y2900D02*
G01X350Y3250D01*
G54D27*
G01X350Y3250D03*
G01X350Y6600D03*
G54D29*
G01X350Y6600D02*
G01X256Y6400D01*
G01X256Y6400D02*
G01X255Y6171D01*
G01X167Y7598D02*
G01X651Y7598D01*
G01X651Y7598D02*
G01X750Y7500D01*
G01X750Y7500D02*
G01X750Y7375D01*
G54D27*
G01X750Y7375D03*
G54D29*
G01X-255Y2671D02*
G01X-256Y2900D01*
G01X-256Y2900D02*
G01X-350Y3250D01*
G54D27*
G01X-350Y3250D03*
G01X-450Y6600D03*
G54D29*
G01X-450Y6600D02*
G01X-256Y6400D01*
G01X-256Y6400D02*
G01X-250Y6250D01*
G01X-250Y6250D02*
G01X-255Y6171D01*
G01X167Y8110D02*
G01X-264Y8110D01*
G01X-264Y8110D02*
G01X-450Y7925D01*
G01X-450Y7925D02*
G01X-450Y6600D01*
G01X3500Y10500D02*
G01X3000Y10500D01*
G01X3000Y10500D02*
G01X2750Y10250D01*
G01X2750Y10250D02*
G01X2750Y8125D01*
G01X2750Y8125D02*
G01X2479Y7854D01*
G01X2479Y7854D02*
G01X2500Y7875D01*
G01X2500Y7875D02*
G01X2375Y7750D01*
G01X2375Y7750D02*
G01X875Y7750D01*
G01X875Y7750D02*
G01X770Y7854D01*
G01X770Y7854D02*
G01X167Y7854D01*
G01X0Y828D02*
G01X0Y625D01*
G01X0Y625D02*
G01X125Y500D01*
G01X125Y500D02*
G01X250Y500D01*
G54D27*
G01X250Y500D03*
G54D29*
G01X255Y828D02*
G01X250Y500D01*
G54D27*
G01X1625Y2000D03*
G54D29*
G01X1625Y2000D02*
G01X1250Y1750D01*
G01X1250Y1750D02*
G01X921Y1750D01*
G54D27*
G01X-1625Y2875D03*
G54D29*
G01X-1625Y2875D02*
G01X-2125Y3375D01*
G01X-2125Y3375D02*
G01X-2375Y3375D01*
G01X-2375Y3375D02*
G01X-3000Y4000D01*
G54D27*
G01X-500Y10750D03*
G54D29*
G01X-500Y10750D02*
G01X-1375Y9875D01*
G54D27*
G01X-1375Y9875D03*
G01X-2000Y7500D03*
G54D29*
G01X-2000Y7500D02*
G01X-2098Y7598D01*
G01X-2098Y7598D02*
G01X-2667Y7598D01*
G01X3500Y12500D02*
G01X3125Y12500D01*
G01X3125Y12500D02*
G01X2500Y11875D01*
G01X2500Y11875D02*
G01X2500Y8375D01*
G01X2500Y8375D02*
G01X2125Y8000D01*
G01X2125Y8000D02*
G01X1000Y8000D01*
G01X1000Y8000D02*
G01X633Y8366D01*
G01X633Y8366D02*
G01X167Y8366D01*
G01X-255Y828D02*
G01X-255Y619D01*
G01X-255Y619D02*
G01X-375Y500D01*
G54D27*
G01X-375Y500D03*
G54D29*
G01X-511Y828D02*
G01X-511Y636D01*
G01X-511Y636D02*
G01X-375Y500D01*
G54D27*
G01X999Y466D03*
G54D32*
G01X999Y466D02*
G01X733Y199D01*
G01X733Y199D02*
G01X-133Y199D01*
G01X-133Y199D02*
G01X-375Y441D01*
G01X-375Y441D02*
G01X-375Y500D01*
G54D29*
G01X167Y8877D02*
G01X872Y8877D01*
G01X872Y8877D02*
G01X875Y8875D01*
G54D27*
G01X875Y8875D03*
G54D29*
G01X167Y8877D02*
G01X-375Y8875D01*
G01X-375Y8875D02*
G01X-500Y8750D01*
G01X-500Y8750D02*
G01X-500Y8250D01*
G01X-500Y8250D02*
G01X-750Y8000D01*
G01X-750Y8000D02*
G01X-750Y7000D01*
G01X-750Y7000D02*
G01X-1625Y6125D01*
G01X-1625Y6125D02*
G01X-1625Y5750D01*
G01X-1625Y5750D02*
G01X-1125Y5250D01*
G01X-1125Y5250D02*
G01X-921Y5250D01*
G01X-4750Y11370D02*
G01X-4500Y12375D01*
G54D31*
G01X-4500Y12375D02*
G01X-4000Y12375D01*
G54D29*
G01X-4000Y12375D02*
G01X-3875Y12500D01*
G01X-3875Y12500D02*
G01X-3834Y12500D01*
G01X-2667Y9645D02*
G01X-3770Y9645D01*
G01X-3770Y9645D02*
G01X-4500Y10375D01*
G01X-4500Y10375D02*
G01X-4750Y11370D01*
G01X-2667Y8877D02*
G01X-1747Y8877D01*
G01X-1747Y8877D02*
G01X-1625Y9000D01*
G01X-1625Y9000D02*
G01X-1500Y9000D01*
G54D27*
G01X-1500Y9000D03*
G01X0Y7000D03*
G54D29*
G01X0Y7000D02*
G01X0Y6171D01*
G01X167Y8622D02*
G01X752Y8622D01*
G01X752Y8622D02*
G01X1125Y8375D01*
G54D27*
G01X1125Y8375D03*
G01X-1125Y8125D03*
G54D29*
G01X-1125Y8125D02*
G01X-1125Y7375D01*
G01X-1125Y7375D02*
G01X-1375Y7125D01*
G01X-1375Y7125D02*
G01X-2500Y7125D01*
G54D27*
G01X-2500Y7125D03*
G01X-3000Y6625D03*
G54D29*
G01X-3000Y6625D02*
G01X-3875Y5750D01*
G01X-3875Y5750D02*
G01X-3875Y3750D01*
G01X-3875Y3750D02*
G01X-3375Y3250D01*
G01X-3375Y3250D02*
G01X-2750Y3250D01*
G01X-2750Y3250D02*
G01X-2125Y2625D01*
G01X-2125Y2625D02*
G01X-2125Y2250D01*
G01X-2125Y2250D02*
G01X-1875Y2000D01*
G01X-1875Y2000D02*
G01X-1375Y2000D01*
G01X-1375Y2000D02*
G01X-1125Y1750D01*
G01X-1125Y1750D02*
G01X-921Y1750D01*
G01X167Y9389D02*
G01X-264Y9389D01*
G01X-264Y9389D02*
G01X-375Y9500D01*
G01X-375Y9500D02*
G01X-375Y10250D01*
G01X-375Y10250D02*
G01X500Y11125D01*
G01X500Y11125D02*
G01X490Y11850D01*
G54D27*
G01X0Y15500D03*
G54D29*
G01X0Y15500D02*
G01X0Y12250D01*
G01X0Y12250D02*
G01X490Y11850D01*
G01X-3500Y6700D02*
G01X-3500Y8125D01*
G01X-3500Y8125D02*
G01X-3258Y8366D01*
G01X-3258Y8366D02*
G01X-2667Y8366D01*
G01X-2667Y8622D02*
G01X-2625Y8625D01*
G01X-2625Y8625D02*
G01X-2000Y8625D01*
G01X-2000Y8625D02*
G01X-1875Y8500D01*
G54D27*
G01X-1875Y8500D03*
G01X0Y3050D03*
G54D29*
G01X0Y3050D02*
G01X0Y2671D01*
G01X167Y9645D02*
G01X520Y9645D01*
G01X520Y9645D02*
G01X750Y9875D01*
G01X750Y9875D02*
G01X750Y11000D01*
G01X750Y11000D02*
G01X1125Y11375D01*
G01X1125Y11375D02*
G01X1125Y12500D01*
G01X1125Y12500D02*
G01X985Y12640D01*
G01X985Y12640D02*
G01X490Y12640D01*
G54D27*
G01X250Y15875D03*
G54D29*
G01X250Y15875D02*
G01X490Y15635D01*
G01X490Y15635D02*
G01X490Y12640D01*
G01X1065Y9400D02*
G01X1000Y9250D01*
G01X1000Y9250D02*
G01X750Y9250D01*
G01X750Y9250D02*
G01X633Y9133D01*
G01X633Y9133D02*
G01X167Y9133D01*
G01X-5665Y6500D02*
G01X-5625Y6500D01*
G01X-5625Y6500D02*
G01X-5500Y6625D01*
G54D31*
G01X-5500Y6625D02*
G01X-5000Y6625D01*
G54D29*
G01X-5000Y6625D02*
G01X-4750Y7630D01*
G01X-2667Y9389D02*
G01X-3735Y9389D01*
G01X-3735Y9389D02*
G01X-4500Y8625D01*
G01X-4500Y8625D02*
G01X-4750Y7630D01*
G01X0Y1750D02*
G01X400Y2200D01*
G01X400Y2200D02*
G01X461Y2261D01*
G01X461Y2261D02*
G01X921Y2261D01*
G01X0Y5250D02*
G01X-511Y5761D01*
G01X-511Y5761D02*
G01X-511Y6171D01*
G01X0Y5250D02*
G01X500Y5700D01*
G01X500Y5700D02*
G01X561Y5761D01*
G01X561Y5761D02*
G01X921Y5761D01*
G01X0Y1750D02*
G01X-511Y2261D01*
G01X-511Y2261D02*
G01X-511Y2671D01*
G01X-3165Y12500D02*
G01X-2750Y12500D01*
G54D27*
G01X-2750Y12500D03*
G54D29*
G01X-6334Y6500D02*
G01X-6750Y6500D01*
G54D27*
G01X-6750Y6500D03*
G54D29*
G01X167Y9901D02*
G01X223Y9901D01*
G01X223Y9901D02*
G01X250Y9875D01*
G01X250Y9875D02*
G01X167Y9901D01*
G01X167Y9901D02*
G01X276Y9901D01*
G01X276Y9901D02*
G01X375Y10000D01*
G01X375Y10000D02*
G01X375Y10125D01*
G54D27*
G01X375Y10125D03*
G54D29*
G01X1734Y9400D02*
G01X1775Y9400D01*
G01X1775Y9400D02*
G01X1875Y9500D01*
G54D30*
G01X1734Y9400D02*
G01X1750Y9875D01*
G01X1750Y9875D02*
G01X1500Y10000D01*
G54D27*
G01X1500Y10000D03*
G54D30*
G01X-3084Y10750D02*
G01X-3084Y10834D01*
G01X-3084Y10834D02*
G01X-3125Y10875D01*
G01X-3125Y10875D02*
G01X-3125Y11250D01*
G54D27*
G01X-3125Y11250D03*
G54D29*
G01X-511Y6171D02*
G01X-703Y6171D01*
G01X-703Y6171D02*
G01X-750Y6125D01*
G54D27*
G01X-750Y6125D03*
G54D29*
G01X-921Y5761D02*
G01X-1136Y5761D01*
G01X-1136Y5761D02*
G01X-1250Y5875D01*
G54D27*
G01X-1250Y5875D03*
G54D29*
G01X-921Y2261D02*
G01X-1136Y2261D01*
G01X-1136Y2261D02*
G01X-1625Y2375D01*
G54D27*
G01X-1625Y2375D03*
G54D29*
G01X921Y2261D02*
G01X921Y2421D01*
G01X921Y2421D02*
G01X1250Y2920D01*
G54D27*
G01X1250Y2920D03*
G54D33*
G01X-7250Y15750D02*
G01X-7250Y15125D01*
G01X-7250Y15125D02*
G01X-7125Y15000D01*
G01X-7125Y15000D02*
G01X-5375Y15000D01*
G54D27*
G01X-5375Y15000D03*
G54D29*
G01X6874Y7500D02*
G01X7375Y7500D01*
G54D27*
G01X7375Y7500D03*

G04 Draw Text*
M00*
M02*
