G04 FreePCB version 1.359*
G04 C:\freepcb\projects\thermokUSB-RTD2_rev1\CAM\top_silk.grb*
G04 top silk layer *
G04 Scale: 100 percent, Rotated: No, Reflected: No *
%FSLAX24Y24*%
%MOIN*%
%LN top silk *%
G04 Rounded Rectangle Macro, params: W/2, H/2, R *
%AMRNDREC*
21,1,$1+$1,$2+$2-$3-$3,0,0,0*
21,1,$1+$1-$3-$3,$2+$2,0,0,0*
1,1,$3+$3,$1-$3,$2-$3*
1,1,$3+$3,$3-$1,$2-$3*
1,1,$3+$3,$1-$3,$3-$2*
1,1,$3+$3,$3-$1,$3-$2*%
G04 Rectangular Thermal Macro, params: W/2, H/2, T/2 *
%AMRECTHERM*
$4=$3/2*
21,1,$1-$3,$2-$3,0-$1/2-$4,0-$2/2-$4,0*
21,1,$1-$3,$2-$3,0-$1/2-$4,$2/2+$4,0*
21,1,$1-$3,$2-$3,$1/2+$4,0-$2/2-$4,0*
21,1,$1-$3,$2-$3,$1/2+$4,$2/2+$4,0*%
%ADD10C,0.005000*%
%ADD11C,0.010000*%
%ADD12C,0.006000*%
%ADD13C,0.008000*%
%ADD14C,0.007000*%
%ADD15C,0.015000*%
G90*
G70D02*

G04 Step and Repeat for panelization *

G04 ----------------------- Draw board outline (positive)*
%LPD*%
G54D10*
G01X0Y0D02*
G01X-8000Y0D01*
G04 end of side 1*
G01X-8000Y17500D01*
G04 end of side 2*
G01X8000Y17500D01*
G04 end of side 3*
G01X8000Y0D01*
G04 end of side 4*
G01X0Y0D01*

G04 -------------- Draw Parts, Pads, Traces, Vias and Text (positive)*
%LPD*%
G04 Draw part P1*
G04 draw part outline for part P1*
G54D11*
G01X3000Y6250D02*
G01X4400Y6250D01*
G01X4400Y6250D02*
G01X4400Y250D01*
G01X4400Y250D02*
G01X1600Y250D01*
G01X1600Y250D02*
G01X1600Y6250D01*
G01X1600Y6250D02*
G01X3000Y6250D01*
G04 draw reference designator for part P1*
G01X4700Y6177D02*
G01X4700Y5700D01*
G01X4904Y6177D02*
G01X4700Y6177D01*
G01X4904Y6177D02*
G01X4972Y6154D01*
G01X4972Y6154D02*
G01X4995Y6131D01*
G01X4995Y6131D02*
G01X5018Y6086D01*
G01X5018Y6086D02*
G01X5018Y6018D01*
G01X5018Y6018D02*
G01X4995Y5972D01*
G01X4995Y5972D02*
G01X4972Y5950D01*
G01X4972Y5950D02*
G01X4904Y5927D01*
G01X4700Y5927D02*
G01X4904Y5927D01*
G01X5245Y6109D02*
G01X5200Y6086D01*
G01X5313Y6177D02*
G01X5245Y6109D01*
G01X5313Y6177D02*
G01X5313Y5700D01*
G04 Draw part U1*
G04 draw part outline for part U1*
G54D12*
G01X-722Y4415D02*
G01X-750Y4401D01*
G01X-681Y4456D02*
G01X-722Y4415D01*
G01X-681Y4456D02*
G01X-681Y4170D01*
G04 draw reference designator for part U1*
G54D13*
G01X-1300Y6381D02*
G01X-1300Y6109D01*
G01X-1300Y6109D02*
G01X-1281Y6054D01*
G01X-1281Y6054D02*
G01X-1245Y6018D01*
G01X-1245Y6018D02*
G01X-1190Y6000D01*
G01X-1154Y6000D02*
G01X-1190Y6000D01*
G01X-1100Y6018D02*
G01X-1154Y6000D01*
G01X-1063Y6054D02*
G01X-1100Y6018D01*
G01X-1045Y6109D02*
G01X-1063Y6054D01*
G01X-1045Y6381D02*
G01X-1045Y6109D01*
G01X-863Y6327D02*
G01X-900Y6309D01*
G01X-809Y6381D02*
G01X-863Y6327D01*
G01X-809Y6381D02*
G01X-809Y6000D01*
G04 Draw part R3*
G04 draw part outline for part R3*
G54D14*
G01X1534Y4449D02*
G01X1534Y3150D01*
G01X1534Y3150D02*
G01X865Y3150D01*
G01X865Y3150D02*
G01X865Y4449D01*
G01X865Y4449D02*
G01X1534Y4449D01*
G04 draw reference designator for part R3*
G54D13*
G01X100Y3981D02*
G01X100Y3600D01*
G01X263Y3981D02*
G01X100Y3981D01*
G01X263Y3981D02*
G01X318Y3963D01*
G01X318Y3963D02*
G01X336Y3945D01*
G01X336Y3945D02*
G01X354Y3909D01*
G01X354Y3909D02*
G01X354Y3872D01*
G01X354Y3872D02*
G01X336Y3836D01*
G01X336Y3836D02*
G01X318Y3818D01*
G01X318Y3818D02*
G01X263Y3800D01*
G01X100Y3800D02*
G01X263Y3800D01*
G01X227Y3800D02*
G01X354Y3600D01*
G01X736Y3981D02*
G01X536Y3981D01*
G01X736Y3981D02*
G01X627Y3836D01*
G01X681Y3836D02*
G01X627Y3836D01*
G01X681Y3836D02*
G01X718Y3818D01*
G01X718Y3818D02*
G01X736Y3800D01*
G01X736Y3800D02*
G01X754Y3745D01*
G01X754Y3745D02*
G01X754Y3709D01*
G01X754Y3709D02*
G01X736Y3654D01*
G01X736Y3654D02*
G01X700Y3618D01*
G01X700Y3618D02*
G01X645Y3600D01*
G01X590Y3600D02*
G01X645Y3600D01*
G01X536Y3618D02*
G01X590Y3600D01*
G01X518Y3636D02*
G01X536Y3618D01*
G01X500Y3672D02*
G01X518Y3636D01*
G04 Draw part R2*
G04 Draw part C3*
G04 Draw part C1*
G04 Draw part C2*
G04 Draw part P2*
G04 draw part outline for part P2*
G54D11*
G01X-3000Y250D02*
G01X-4400Y250D01*
G01X-4400Y250D02*
G01X-4400Y6250D01*
G01X-4400Y6250D02*
G01X-1600Y6250D01*
G01X-1600Y6250D02*
G01X-1600Y250D01*
G01X-1600Y250D02*
G01X-3000Y250D01*
G04 draw reference designator for part P2*
G01X-6000Y777D02*
G01X-6000Y300D01*
G01X-5795Y777D02*
G01X-6000Y777D01*
G01X-5795Y777D02*
G01X-5727Y754D01*
G01X-5727Y754D02*
G01X-5704Y731D01*
G01X-5704Y731D02*
G01X-5681Y686D01*
G01X-5681Y686D02*
G01X-5681Y618D01*
G01X-5681Y618D02*
G01X-5704Y572D01*
G01X-5704Y572D02*
G01X-5727Y550D01*
G01X-5727Y550D02*
G01X-5795Y527D01*
G01X-6000Y527D02*
G01X-5795Y527D01*
G01X-5477Y686D02*
G01X-5477Y663D01*
G01X-5454Y731D02*
G01X-5477Y686D01*
G01X-5431Y754D02*
G01X-5454Y731D01*
G01X-5386Y777D02*
G01X-5431Y754D01*
G01X-5295Y777D02*
G01X-5386Y777D01*
G01X-5295Y777D02*
G01X-5250Y754D01*
G01X-5250Y754D02*
G01X-5227Y731D01*
G01X-5227Y731D02*
G01X-5204Y686D01*
G01X-5204Y686D02*
G01X-5204Y640D01*
G01X-5204Y640D02*
G01X-5227Y595D01*
G01X-5227Y595D02*
G01X-5272Y527D01*
G01X-5272Y527D02*
G01X-5500Y300D01*
G01X-5181Y300D02*
G01X-5500Y300D01*
G04 Draw part U2*
G04 draw part outline for part U2*
G54D12*
G01X-722Y915D02*
G01X-750Y901D01*
G01X-681Y956D02*
G01X-722Y915D01*
G01X-681Y956D02*
G01X-681Y670D01*
G04 draw reference designator for part U2*
G54D13*
G01X-1400Y2831D02*
G01X-1400Y2559D01*
G01X-1400Y2559D02*
G01X-1381Y2504D01*
G01X-1381Y2504D02*
G01X-1345Y2468D01*
G01X-1345Y2468D02*
G01X-1290Y2450D01*
G01X-1254Y2450D02*
G01X-1290Y2450D01*
G01X-1200Y2468D02*
G01X-1254Y2450D01*
G01X-1163Y2504D02*
G01X-1200Y2468D01*
G01X-1145Y2559D02*
G01X-1163Y2504D01*
G01X-1145Y2831D02*
G01X-1145Y2559D01*
G01X-981Y2759D02*
G01X-981Y2740D01*
G01X-963Y2795D02*
G01X-981Y2759D01*
G01X-945Y2813D02*
G01X-963Y2795D01*
G01X-909Y2831D02*
G01X-945Y2813D01*
G01X-836Y2831D02*
G01X-909Y2831D01*
G01X-836Y2831D02*
G01X-800Y2813D01*
G01X-800Y2813D02*
G01X-781Y2795D01*
G01X-781Y2795D02*
G01X-763Y2759D01*
G01X-763Y2759D02*
G01X-763Y2722D01*
G01X-763Y2722D02*
G01X-781Y2686D01*
G01X-781Y2686D02*
G01X-818Y2631D01*
G01X-818Y2631D02*
G01X-1000Y2450D01*
G01X-745Y2450D02*
G01X-1000Y2450D01*
G04 Draw part R6*
G04 Draw part R5*
G04 Draw part C6*
G04 Draw part C4*
G04 Draw part C5*
G04 Draw part R1*
G04 Draw part R4*
G04 Draw part U4*
G04 draw part outline for part U4*
G54D11*
G01X-2540Y10204D02*
G01X-2563Y10250D01*
G01X-2472Y10136D02*
G01X-2540Y10204D01*
G01X-2472Y10136D02*
G01X-2950Y10136D01*
G04 draw reference designator for part U4*
G01X-1000Y10577D02*
G01X-1000Y10236D01*
G01X-1000Y10236D02*
G01X-977Y10168D01*
G01X-977Y10168D02*
G01X-931Y10122D01*
G01X-931Y10122D02*
G01X-863Y10100D01*
G01X-818Y10100D02*
G01X-863Y10100D01*
G01X-750Y10122D02*
G01X-818Y10100D01*
G01X-704Y10168D02*
G01X-750Y10122D01*
G01X-681Y10236D02*
G01X-704Y10168D01*
G01X-681Y10577D02*
G01X-681Y10236D01*
G01X-272Y10577D02*
G01X-500Y10259D01*
G01X-159Y10259D02*
G01X-500Y10259D01*
G01X-272Y10577D02*
G01X-272Y10100D01*
G04 Draw part J2*
G04 draw part outline for part J2*
G01X-2500Y17750D02*
G01X-2500Y14550D01*
G01X-2500Y17750D02*
G01X2500Y17750D01*
G01X2500Y17750D02*
G01X2500Y14550D01*
G01X2500Y12850D02*
G01X2500Y11250D01*
G01X2500Y11250D02*
G01X-2500Y11250D01*
G01X-2500Y11250D02*
G01X-2500Y12850D01*
G04 draw reference designator for part J2*
G01X-3272Y17277D02*
G01X-3272Y16913D01*
G01X-3272Y16913D02*
G01X-3295Y16845D01*
G01X-3295Y16845D02*
G01X-3318Y16822D01*
G01X-3318Y16822D02*
G01X-3363Y16800D01*
G01X-3409Y16800D02*
G01X-3363Y16800D01*
G01X-3454Y16822D02*
G01X-3409Y16800D01*
G01X-3477Y16845D02*
G01X-3454Y16822D01*
G01X-3500Y16913D02*
G01X-3477Y16845D01*
G01X-3500Y16959D02*
G01X-3500Y16913D01*
G01X-3068Y17186D02*
G01X-3068Y17163D01*
G01X-3045Y17231D02*
G01X-3068Y17186D01*
G01X-3022Y17254D02*
G01X-3045Y17231D01*
G01X-2977Y17277D02*
G01X-3022Y17254D01*
G01X-2886Y17277D02*
G01X-2977Y17277D01*
G01X-2886Y17277D02*
G01X-2840Y17254D01*
G01X-2840Y17254D02*
G01X-2818Y17231D01*
G01X-2818Y17231D02*
G01X-2795Y17186D01*
G01X-2795Y17186D02*
G01X-2795Y17140D01*
G01X-2795Y17140D02*
G01X-2818Y17095D01*
G01X-2818Y17095D02*
G01X-2863Y17027D01*
G01X-2863Y17027D02*
G01X-3090Y16800D01*
G01X-2772Y16800D02*
G01X-3090Y16800D01*
G04 Draw part C9*
G04 draw part outline for part C9*
G54D14*
G01X-2100Y10415D02*
G01X-3399Y10415D01*
G01X-3399Y10415D02*
G01X-3399Y11084D01*
G01X-3399Y11084D02*
G01X-2100Y11084D01*
G01X-2100Y11084D02*
G01X-2100Y10415D01*
G04 draw reference designator for part C9*
G54D11*
G01X-1681Y10909D02*
G01X-1659Y10863D01*
G01X-1727Y10954D02*
G01X-1681Y10909D01*
G01X-1772Y10977D02*
G01X-1727Y10954D01*
G01X-1863Y10977D02*
G01X-1772Y10977D01*
G01X-1863Y10977D02*
G01X-1909Y10954D01*
G01X-1909Y10954D02*
G01X-1954Y10909D01*
G01X-1954Y10909D02*
G01X-1977Y10863D01*
G01X-1977Y10863D02*
G01X-2000Y10795D01*
G01X-2000Y10795D02*
G01X-2000Y10681D01*
G01X-2000Y10681D02*
G01X-1977Y10613D01*
G01X-1977Y10613D02*
G01X-1954Y10568D01*
G01X-1954Y10568D02*
G01X-1909Y10522D01*
G01X-1909Y10522D02*
G01X-1863Y10500D01*
G01X-1772Y10500D02*
G01X-1863Y10500D01*
G01X-1727Y10522D02*
G01X-1772Y10500D01*
G01X-1681Y10568D02*
G01X-1727Y10522D01*
G01X-1659Y10613D02*
G01X-1681Y10568D01*
G01X-1181Y10818D02*
G01X-1204Y10750D01*
G01X-1204Y10750D02*
G01X-1250Y10704D01*
G01X-1250Y10704D02*
G01X-1318Y10681D01*
G01X-1340Y10681D02*
G01X-1318Y10681D01*
G01X-1409Y10704D02*
G01X-1340Y10681D01*
G01X-1454Y10750D02*
G01X-1409Y10704D01*
G01X-1477Y10818D02*
G01X-1454Y10750D01*
G01X-1477Y10840D02*
G01X-1477Y10818D01*
G01X-1454Y10909D02*
G01X-1477Y10840D01*
G01X-1409Y10954D02*
G01X-1454Y10909D01*
G01X-1340Y10977D02*
G01X-1409Y10954D01*
G01X-1318Y10977D02*
G01X-1340Y10977D01*
G01X-1318Y10977D02*
G01X-1250Y10954D01*
G01X-1250Y10954D02*
G01X-1204Y10909D01*
G01X-1204Y10909D02*
G01X-1181Y10818D01*
G01X-1181Y10818D02*
G01X-1181Y10704D01*
G01X-1181Y10704D02*
G01X-1204Y10590D01*
G01X-1204Y10590D02*
G01X-1250Y10522D01*
G01X-1250Y10522D02*
G01X-1318Y10500D01*
G01X-1363Y10500D02*
G01X-1318Y10500D01*
G01X-1431Y10522D02*
G01X-1363Y10500D01*
G01X-1454Y10568D02*
G01X-1431Y10522D01*
G04 Draw part C10*
G04 draw part outline for part C10*
G54D14*
G01X750Y9734D02*
G01X2049Y9734D01*
G01X2049Y9734D02*
G01X2049Y9065D01*
G01X2049Y9065D02*
G01X750Y9065D01*
G01X750Y9065D02*
G01X750Y9734D01*
G04 draw reference designator for part C10*
G54D13*
G01X1054Y10227D02*
G01X1072Y10190D01*
G01X1018Y10263D02*
G01X1054Y10227D01*
G01X981Y10281D02*
G01X1018Y10263D01*
G01X909Y10281D02*
G01X981Y10281D01*
G01X909Y10281D02*
G01X872Y10263D01*
G01X872Y10263D02*
G01X836Y10227D01*
G01X836Y10227D02*
G01X818Y10190D01*
G01X818Y10190D02*
G01X800Y10136D01*
G01X800Y10136D02*
G01X800Y10045D01*
G01X800Y10045D02*
G01X818Y9990D01*
G01X818Y9990D02*
G01X836Y9954D01*
G01X836Y9954D02*
G01X872Y9918D01*
G01X872Y9918D02*
G01X909Y9900D01*
G01X981Y9900D02*
G01X909Y9900D01*
G01X1018Y9918D02*
G01X981Y9900D01*
G01X1054Y9954D02*
G01X1018Y9918D01*
G01X1072Y9990D02*
G01X1054Y9954D01*
G01X1254Y10227D02*
G01X1218Y10209D01*
G01X1309Y10281D02*
G01X1254Y10227D01*
G01X1309Y10281D02*
G01X1309Y9900D01*
G01X1563Y10281D02*
G01X1509Y10263D01*
G01X1509Y10263D02*
G01X1472Y10209D01*
G01X1472Y10209D02*
G01X1454Y10118D01*
G01X1454Y10118D02*
G01X1454Y10063D01*
G01X1454Y10063D02*
G01X1472Y9972D01*
G01X1472Y9972D02*
G01X1509Y9918D01*
G01X1509Y9918D02*
G01X1563Y9900D01*
G01X1600Y9900D02*
G01X1563Y9900D01*
G01X1654Y9918D02*
G01X1600Y9900D01*
G01X1690Y9972D02*
G01X1654Y9918D01*
G01X1709Y10063D02*
G01X1690Y9972D01*
G01X1709Y10118D02*
G01X1709Y10063D01*
G01X1690Y10209D02*
G01X1709Y10118D01*
G01X1654Y10263D02*
G01X1690Y10209D01*
G01X1600Y10281D02*
G01X1654Y10263D01*
G01X1563Y10281D02*
G01X1600Y10281D01*
G04 Draw part X1*
G04 draw part outline for part X1*
G54D11*
G01X-5250Y12000D02*
G01X-6000Y12000D01*
G01X-6000Y12000D02*
G01X-6000Y7000D01*
G01X-6000Y7000D02*
G01X-5250Y7000D01*
G01X-4250Y7000D02*
G01X-3500Y7000D01*
G01X-3500Y7000D02*
G01X-3500Y12000D01*
G01X-3500Y12000D02*
G01X-4250Y12000D01*
G04 draw reference designator for part X1*
G01X-3400Y7377D02*
G01X-3081Y6900D01*
G01X-3081Y7377D02*
G01X-3400Y6900D01*
G01X-2854Y7309D02*
G01X-2900Y7286D01*
G01X-2786Y7377D02*
G01X-2854Y7309D01*
G01X-2786Y7377D02*
G01X-2786Y6900D01*
G04 Draw part C11*
G04 draw part outline for part C11*
G54D14*
G01X-4149Y12834D02*
G01X-2850Y12834D01*
G01X-2850Y12834D02*
G01X-2850Y12165D01*
G01X-2850Y12165D02*
G01X-4149Y12165D01*
G01X-4149Y12165D02*
G01X-4149Y12834D01*
G04 draw reference designator for part C11*
G54D11*
G01X-3931Y13409D02*
G01X-3909Y13363D01*
G01X-3977Y13454D02*
G01X-3931Y13409D01*
G01X-4022Y13477D02*
G01X-3977Y13454D01*
G01X-4113Y13477D02*
G01X-4022Y13477D01*
G01X-4113Y13477D02*
G01X-4159Y13454D01*
G01X-4159Y13454D02*
G01X-4204Y13409D01*
G01X-4204Y13409D02*
G01X-4227Y13363D01*
G01X-4227Y13363D02*
G01X-4250Y13295D01*
G01X-4250Y13295D02*
G01X-4250Y13181D01*
G01X-4250Y13181D02*
G01X-4227Y13113D01*
G01X-4227Y13113D02*
G01X-4204Y13068D01*
G01X-4204Y13068D02*
G01X-4159Y13022D01*
G01X-4159Y13022D02*
G01X-4113Y13000D01*
G01X-4022Y13000D02*
G01X-4113Y13000D01*
G01X-3977Y13022D02*
G01X-4022Y13000D01*
G01X-3931Y13068D02*
G01X-3977Y13022D01*
G01X-3909Y13113D02*
G01X-3931Y13068D01*
G01X-3681Y13409D02*
G01X-3727Y13386D01*
G01X-3613Y13477D02*
G01X-3681Y13409D01*
G01X-3613Y13477D02*
G01X-3613Y13000D01*
G01X-3386Y13409D02*
G01X-3431Y13386D01*
G01X-3318Y13477D02*
G01X-3386Y13409D01*
G01X-3318Y13477D02*
G01X-3318Y13000D01*
G04 Draw part C12*
G04 draw part outline for part C12*
G54D14*
G01X-5350Y6165D02*
G01X-6649Y6165D01*
G01X-6649Y6165D02*
G01X-6649Y6834D01*
G01X-6649Y6834D02*
G01X-5350Y6834D01*
G01X-5350Y6834D02*
G01X-5350Y6165D01*
G04 draw reference designator for part C12*
G54D11*
G01X-6181Y5909D02*
G01X-6159Y5863D01*
G01X-6227Y5954D02*
G01X-6181Y5909D01*
G01X-6272Y5977D02*
G01X-6227Y5954D01*
G01X-6363Y5977D02*
G01X-6272Y5977D01*
G01X-6363Y5977D02*
G01X-6409Y5954D01*
G01X-6409Y5954D02*
G01X-6454Y5909D01*
G01X-6454Y5909D02*
G01X-6477Y5863D01*
G01X-6477Y5863D02*
G01X-6500Y5795D01*
G01X-6500Y5795D02*
G01X-6500Y5681D01*
G01X-6500Y5681D02*
G01X-6477Y5613D01*
G01X-6477Y5613D02*
G01X-6454Y5568D01*
G01X-6454Y5568D02*
G01X-6409Y5522D01*
G01X-6409Y5522D02*
G01X-6363Y5500D01*
G01X-6272Y5500D02*
G01X-6363Y5500D01*
G01X-6227Y5522D02*
G01X-6272Y5500D01*
G01X-6181Y5568D02*
G01X-6227Y5522D01*
G01X-6159Y5613D02*
G01X-6181Y5568D01*
G01X-5931Y5909D02*
G01X-5977Y5886D01*
G01X-5863Y5977D02*
G01X-5931Y5909D01*
G01X-5863Y5977D02*
G01X-5863Y5500D01*
G01X-5659Y5886D02*
G01X-5659Y5863D01*
G01X-5636Y5931D02*
G01X-5659Y5886D01*
G01X-5613Y5954D02*
G01X-5636Y5931D01*
G01X-5568Y5977D02*
G01X-5613Y5954D01*
G01X-5477Y5977D02*
G01X-5568Y5977D01*
G01X-5477Y5977D02*
G01X-5431Y5954D01*
G01X-5431Y5954D02*
G01X-5409Y5931D01*
G01X-5409Y5931D02*
G01X-5386Y5886D01*
G01X-5386Y5886D02*
G01X-5386Y5840D01*
G01X-5386Y5840D02*
G01X-5409Y5795D01*
G01X-5409Y5795D02*
G01X-5454Y5727D01*
G01X-5454Y5727D02*
G01X-5681Y5500D01*
G01X-5363Y5500D02*
G01X-5681Y5500D01*
G04 Draw part U3*
G04 Draw part C7*
G04 Draw part C8*
G04 Draw part J1*
G04 draw part outline for part J1*
G01X-7750Y15250D02*
G01X-7750Y16250D01*
G01X-7750Y16250D02*
G01X-2750Y16250D01*
G01X-2750Y16250D02*
G01X-2750Y15250D01*
G01X-2750Y15250D02*
G01X-7750Y15250D01*
G04 draw reference designator for part J1*
G01X-7372Y16977D02*
G01X-7372Y16613D01*
G01X-7372Y16613D02*
G01X-7395Y16545D01*
G01X-7395Y16545D02*
G01X-7418Y16522D01*
G01X-7418Y16522D02*
G01X-7463Y16500D01*
G01X-7509Y16500D02*
G01X-7463Y16500D01*
G01X-7554Y16522D02*
G01X-7509Y16500D01*
G01X-7577Y16545D02*
G01X-7554Y16522D01*
G01X-7600Y16613D02*
G01X-7577Y16545D01*
G01X-7600Y16659D02*
G01X-7600Y16613D01*
G01X-7145Y16909D02*
G01X-7190Y16886D01*
G01X-7077Y16977D02*
G01X-7145Y16909D01*
G01X-7077Y16977D02*
G01X-7077Y16500D01*
G04 Draw part P3*
G04 draw part outline for part P3*
G54D14*
G01X3000Y7000D02*
G01X3000Y13000D01*
G01X3000Y13000D02*
G01X4000Y13000D01*
G01X4000Y13000D02*
G01X4000Y7000D01*
G01X4000Y7000D02*
G01X3000Y7000D01*
G04 draw reference designator for part P3*
G54D11*
G01X2000Y8277D02*
G01X2000Y7800D01*
G01X2204Y8277D02*
G01X2000Y8277D01*
G01X2204Y8277D02*
G01X2272Y8254D01*
G01X2272Y8254D02*
G01X2295Y8231D01*
G01X2295Y8231D02*
G01X2318Y8186D01*
G01X2318Y8186D02*
G01X2318Y8118D01*
G01X2318Y8118D02*
G01X2295Y8072D01*
G01X2295Y8072D02*
G01X2272Y8050D01*
G01X2272Y8050D02*
G01X2204Y8027D01*
G01X2000Y8027D02*
G01X2204Y8027D01*
G01X2795Y8277D02*
G01X2545Y8277D01*
G01X2795Y8277D02*
G01X2659Y8095D01*
G01X2727Y8095D02*
G01X2659Y8095D01*
G01X2727Y8095D02*
G01X2772Y8072D01*
G01X2772Y8072D02*
G01X2795Y8050D01*
G01X2795Y8050D02*
G01X2818Y7981D01*
G01X2818Y7981D02*
G01X2818Y7936D01*
G01X2818Y7936D02*
G01X2795Y7868D01*
G01X2795Y7868D02*
G01X2750Y7822D01*
G01X2750Y7822D02*
G01X2681Y7800D01*
G01X2613Y7800D02*
G01X2681Y7800D01*
G01X2545Y7822D02*
G01X2613Y7800D01*
G01X2522Y7845D02*
G01X2545Y7822D01*
G01X2500Y7890D02*
G01X2522Y7845D01*
G04 Draw part TP1*
G04 draw part outline for part TP1*
G04 Draw part DIN1*
G04 Draw part DIN2*
G04 Draw part TP2*
G04 draw part outline for part TP2*
G04 Draw part R7*
G04 draw part outline for part R7*
G54D14*
G01X4350Y7834D02*
G01X5649Y7834D01*
G01X5649Y7834D02*
G01X5649Y7165D01*
G01X5649Y7165D02*
G01X4350Y7165D01*
G01X4350Y7165D02*
G01X4350Y7834D01*
G04 draw reference designator for part R7*
G01X4250Y8334D02*
G01X4250Y8000D01*
G01X4393Y8334D02*
G01X4250Y8334D01*
G01X4393Y8334D02*
G01X4440Y8318D01*
G01X4440Y8318D02*
G01X4456Y8302D01*
G01X4456Y8302D02*
G01X4472Y8270D01*
G01X4472Y8270D02*
G01X4472Y8238D01*
G01X4472Y8238D02*
G01X4456Y8206D01*
G01X4456Y8206D02*
G01X4440Y8190D01*
G01X4440Y8190D02*
G01X4393Y8175D01*
G01X4250Y8175D02*
G01X4393Y8175D01*
G01X4361Y8175D02*
G01X4472Y8000D01*
G01X4822Y8334D02*
G01X4663Y8000D01*
G01X4822Y8334D02*
G01X4600Y8334D01*
G04 Draw part D1G*
G04 draw part outline for part D1G*
G54D11*
G01X6700Y7900D02*
G01X7000Y7900D01*
G04 draw reference designator for part D1G*
G54D14*
G01X6500Y7084D02*
G01X6500Y6750D01*
G01X6611Y7084D02*
G01X6500Y7084D01*
G01X6611Y7084D02*
G01X6659Y7068D01*
G01X6659Y7068D02*
G01X6690Y7036D01*
G01X6690Y7036D02*
G01X6706Y7004D01*
G01X6706Y7004D02*
G01X6722Y6956D01*
G01X6722Y6956D02*
G01X6722Y6877D01*
G01X6722Y6877D02*
G01X6706Y6829D01*
G01X6706Y6829D02*
G01X6690Y6797D01*
G01X6690Y6797D02*
G01X6659Y6765D01*
G01X6659Y6765D02*
G01X6611Y6750D01*
G01X6500Y6750D02*
G01X6611Y6750D01*
G01X6881Y7036D02*
G01X6850Y7020D01*
G01X6929Y7084D02*
G01X6881Y7036D01*
G01X6929Y7084D02*
G01X6929Y6750D01*
G01X7279Y7036D02*
G01X7295Y7004D01*
G01X7247Y7068D02*
G01X7279Y7036D01*
G01X7215Y7084D02*
G01X7247Y7068D01*
G01X7152Y7084D02*
G01X7215Y7084D01*
G01X7152Y7084D02*
G01X7120Y7068D01*
G01X7120Y7068D02*
G01X7088Y7036D01*
G01X7088Y7036D02*
G01X7072Y7004D01*
G01X7072Y7004D02*
G01X7056Y6956D01*
G01X7056Y6956D02*
G01X7056Y6877D01*
G01X7056Y6877D02*
G01X7072Y6829D01*
G01X7072Y6829D02*
G01X7088Y6797D01*
G01X7088Y6797D02*
G01X7120Y6765D01*
G01X7120Y6765D02*
G01X7152Y6750D01*
G01X7215Y6750D02*
G01X7152Y6750D01*
G01X7247Y6765D02*
G01X7215Y6750D01*
G01X7279Y6797D02*
G01X7247Y6765D01*
G01X7295Y6829D02*
G01X7279Y6797D01*
G01X7295Y6877D02*
G01X7295Y6829D01*
G01X7295Y6877D02*
G01X7215Y6877D01*

G04 Draw traces*

G04 Draw Text*
G54D11*
G01X-4977Y345D02*
G01X-5000Y322D01*
G01X-5000Y322D02*
G01X-4977Y300D01*
G01X-4977Y300D02*
G01X-4954Y322D01*
G01X-4954Y322D02*
G01X-4977Y345D01*
G01X-4772Y686D02*
G01X-4727Y709D01*
G01X-4727Y709D02*
G01X-4659Y777D01*
G01X-4659Y777D02*
G01X-4659Y300D01*
G01X5522Y5745D02*
G01X5500Y5722D01*
G01X5500Y5722D02*
G01X5522Y5700D01*
G01X5522Y5700D02*
G01X5545Y5722D01*
G01X5545Y5722D02*
G01X5522Y5745D01*
G01X5727Y6086D02*
G01X5772Y6109D01*
G01X5772Y6109D02*
G01X5840Y6177D01*
G01X5840Y6177D02*
G01X5840Y5700D01*
G54D13*
G01X1000Y7581D02*
G01X1000Y7200D01*
G01X1000Y7581D02*
G01X1163Y7581D01*
G01X1163Y7581D02*
G01X1218Y7563D01*
G01X1218Y7563D02*
G01X1236Y7545D01*
G01X1236Y7545D02*
G01X1254Y7509D01*
G01X1254Y7509D02*
G01X1254Y7472D01*
G01X1254Y7472D02*
G01X1236Y7436D01*
G01X1236Y7436D02*
G01X1218Y7418D01*
G01X1218Y7418D02*
G01X1163Y7400D01*
G01X1000Y7400D02*
G01X1163Y7400D01*
G01X1163Y7400D02*
G01X1218Y7381D01*
G01X1218Y7381D02*
G01X1236Y7363D01*
G01X1236Y7363D02*
G01X1254Y7327D01*
G01X1254Y7327D02*
G01X1254Y7272D01*
G01X1254Y7272D02*
G01X1236Y7236D01*
G01X1236Y7236D02*
G01X1218Y7218D01*
G01X1218Y7218D02*
G01X1163Y7200D01*
G01X1163Y7200D02*
G01X1000Y7200D01*
G01X1400Y7581D02*
G01X1400Y7200D01*
G01X1400Y7200D02*
G01X1618Y7200D01*
G01X1909Y7581D02*
G01X1763Y7200D01*
G01X1909Y7581D02*
G01X2054Y7200D01*
G01X1818Y7327D02*
G01X1999Y7327D01*
G01X2472Y7490D02*
G01X2454Y7527D01*
G01X2454Y7527D02*
G01X2418Y7563D01*
G01X2418Y7563D02*
G01X2381Y7581D01*
G01X2381Y7581D02*
G01X2309Y7581D01*
G01X2309Y7581D02*
G01X2272Y7563D01*
G01X2272Y7563D02*
G01X2236Y7527D01*
G01X2236Y7527D02*
G01X2218Y7490D01*
G01X2218Y7490D02*
G01X2200Y7436D01*
G01X2200Y7436D02*
G01X2200Y7345D01*
G01X2200Y7345D02*
G01X2218Y7290D01*
G01X2218Y7290D02*
G01X2236Y7254D01*
G01X2236Y7254D02*
G01X2272Y7218D01*
G01X2272Y7218D02*
G01X2309Y7200D01*
G01X2309Y7200D02*
G01X2381Y7200D01*
G01X2381Y7200D02*
G01X2418Y7218D01*
G01X2418Y7218D02*
G01X2454Y7254D01*
G01X2454Y7254D02*
G01X2472Y7290D01*
G01X2618Y7581D02*
G01X2618Y7200D01*
G01X2872Y7581D02*
G01X2618Y7327D01*
G01X2709Y7418D02*
G01X2872Y7200D01*
G01X4318Y10740D02*
G01X4318Y10759D01*
G01X4318Y10759D02*
G01X4336Y10795D01*
G01X4336Y10795D02*
G01X4354Y10813D01*
G01X4354Y10813D02*
G01X4390Y10831D01*
G01X4390Y10831D02*
G01X4463Y10831D01*
G01X4463Y10831D02*
G01X4500Y10813D01*
G01X4500Y10813D02*
G01X4518Y10795D01*
G01X4518Y10795D02*
G01X4536Y10759D01*
G01X4536Y10759D02*
G01X4536Y10722D01*
G01X4536Y10722D02*
G01X4518Y10686D01*
G01X4518Y10686D02*
G01X4481Y10631D01*
G01X4481Y10631D02*
G01X4300Y10450D01*
G01X4300Y10450D02*
G01X4554Y10450D01*
G01X4718Y10704D02*
G01X4700Y10686D01*
G01X4700Y10686D02*
G01X4718Y10668D01*
G01X4718Y10668D02*
G01X4736Y10686D01*
G01X4736Y10686D02*
G01X4718Y10704D01*
G01X4718Y10486D02*
G01X4700Y10468D01*
G01X4700Y10468D02*
G01X4718Y10450D01*
G01X4718Y10450D02*
G01X4736Y10468D01*
G01X4736Y10468D02*
G01X4718Y10486D01*
G01X5172Y10831D02*
G01X5172Y10450D01*
G01X5172Y10831D02*
G01X5336Y10831D01*
G01X5336Y10831D02*
G01X5390Y10813D01*
G01X5390Y10813D02*
G01X5409Y10795D01*
G01X5409Y10795D02*
G01X5427Y10759D01*
G01X5427Y10759D02*
G01X5427Y10722D01*
G01X5427Y10722D02*
G01X5409Y10686D01*
G01X5409Y10686D02*
G01X5390Y10668D01*
G01X5390Y10668D02*
G01X5336Y10650D01*
G01X5336Y10650D02*
G01X5172Y10650D01*
G01X5299Y10650D02*
G01X5427Y10450D01*
G01X5699Y10831D02*
G01X5699Y10450D01*
G01X5572Y10831D02*
G01X5827Y10831D01*
G01X5972Y10831D02*
G01X5972Y10450D01*
G01X5972Y10831D02*
G01X6099Y10831D01*
G01X6099Y10831D02*
G01X6154Y10813D01*
G01X6154Y10813D02*
G01X6190Y10777D01*
G01X6190Y10777D02*
G01X6209Y10740D01*
G01X6209Y10740D02*
G01X6227Y10686D01*
G01X6227Y10686D02*
G01X6227Y10595D01*
G01X6227Y10595D02*
G01X6209Y10540D01*
G01X6209Y10540D02*
G01X6190Y10504D01*
G01X6190Y10504D02*
G01X6154Y10468D01*
G01X6154Y10468D02*
G01X6099Y10450D01*
G01X6099Y10450D02*
G01X5972Y10450D01*
G01X6536Y10777D02*
G01X6536Y10450D01*
G01X6372Y10613D02*
G01X6699Y10613D01*
G01X4336Y10231D02*
G01X4536Y10231D01*
G01X4536Y10231D02*
G01X4427Y10086D01*
G01X4427Y10086D02*
G01X4481Y10086D01*
G01X4481Y10086D02*
G01X4518Y10068D01*
G01X4518Y10068D02*
G01X4536Y10050D01*
G01X4536Y10050D02*
G01X4554Y9995D01*
G01X4554Y9995D02*
G01X4554Y9959D01*
G01X4554Y9959D02*
G01X4536Y9904D01*
G01X4536Y9904D02*
G01X4500Y9868D01*
G01X4500Y9868D02*
G01X4445Y9850D01*
G01X4445Y9850D02*
G01X4390Y9850D01*
G01X4390Y9850D02*
G01X4336Y9868D01*
G01X4336Y9868D02*
G01X4318Y9886D01*
G01X4318Y9886D02*
G01X4300Y9922D01*
G01X4718Y10104D02*
G01X4700Y10086D01*
G01X4700Y10086D02*
G01X4718Y10068D01*
G01X4718Y10068D02*
G01X4736Y10086D01*
G01X4736Y10086D02*
G01X4718Y10104D01*
G01X4718Y9886D02*
G01X4700Y9868D01*
G01X4700Y9868D02*
G01X4718Y9850D01*
G01X4718Y9850D02*
G01X4736Y9868D01*
G01X4736Y9868D02*
G01X4718Y9886D01*
G01X5172Y10231D02*
G01X5172Y9850D01*
G01X5172Y10231D02*
G01X5336Y10231D01*
G01X5336Y10231D02*
G01X5390Y10213D01*
G01X5390Y10213D02*
G01X5409Y10195D01*
G01X5409Y10195D02*
G01X5427Y10159D01*
G01X5427Y10159D02*
G01X5427Y10122D01*
G01X5427Y10122D02*
G01X5409Y10086D01*
G01X5409Y10086D02*
G01X5390Y10068D01*
G01X5390Y10068D02*
G01X5336Y10050D01*
G01X5336Y10050D02*
G01X5172Y10050D01*
G01X5299Y10050D02*
G01X5427Y9850D01*
G01X5699Y10231D02*
G01X5699Y9850D01*
G01X5572Y10231D02*
G01X5827Y10231D01*
G01X5972Y10231D02*
G01X5972Y9850D01*
G01X5972Y10231D02*
G01X6099Y10231D01*
G01X6099Y10231D02*
G01X6154Y10213D01*
G01X6154Y10213D02*
G01X6190Y10177D01*
G01X6190Y10177D02*
G01X6209Y10140D01*
G01X6209Y10140D02*
G01X6227Y10086D01*
G01X6227Y10086D02*
G01X6227Y9995D01*
G01X6227Y9995D02*
G01X6209Y9940D01*
G01X6209Y9940D02*
G01X6190Y9904D01*
G01X6190Y9904D02*
G01X6154Y9868D01*
G01X6154Y9868D02*
G01X6099Y9850D01*
G01X6099Y9850D02*
G01X5972Y9850D01*
G01X6372Y10013D02*
G01X6699Y10013D01*
G01X4481Y9631D02*
G01X4300Y9377D01*
G01X4300Y9377D02*
G01X4572Y9377D01*
G01X4481Y9631D02*
G01X4481Y9250D01*
G01X4736Y9504D02*
G01X4718Y9486D01*
G01X4718Y9486D02*
G01X4736Y9468D01*
G01X4736Y9468D02*
G01X4754Y9486D01*
G01X4754Y9486D02*
G01X4736Y9504D01*
G01X4736Y9286D02*
G01X4718Y9268D01*
G01X4718Y9268D02*
G01X4736Y9250D01*
G01X4736Y9250D02*
G01X4754Y9268D01*
G01X4754Y9268D02*
G01X4736Y9286D01*
G01X5190Y9631D02*
G01X5190Y9250D01*
G01X5190Y9631D02*
G01X5427Y9631D01*
G01X5190Y9450D02*
G01X5336Y9450D01*
G01X5681Y9631D02*
G01X5645Y9613D01*
G01X5645Y9613D02*
G01X5609Y9577D01*
G01X5609Y9577D02*
G01X5590Y9540D01*
G01X5590Y9540D02*
G01X5572Y9486D01*
G01X5572Y9486D02*
G01X5572Y9395D01*
G01X5572Y9395D02*
G01X5590Y9340D01*
G01X5590Y9340D02*
G01X5609Y9304D01*
G01X5609Y9304D02*
G01X5645Y9268D01*
G01X5645Y9268D02*
G01X5681Y9250D01*
G01X5681Y9250D02*
G01X5754Y9250D01*
G01X5754Y9250D02*
G01X5790Y9268D01*
G01X5790Y9268D02*
G01X5827Y9304D01*
G01X5827Y9304D02*
G01X5845Y9340D01*
G01X5845Y9340D02*
G01X5863Y9395D01*
G01X5863Y9395D02*
G01X5863Y9486D01*
G01X5863Y9486D02*
G01X5845Y9540D01*
G01X5845Y9540D02*
G01X5827Y9577D01*
G01X5827Y9577D02*
G01X5790Y9613D01*
G01X5790Y9613D02*
G01X5754Y9631D01*
G01X5754Y9631D02*
G01X5681Y9631D01*
G01X6009Y9631D02*
G01X6009Y9250D01*
G01X6009Y9631D02*
G01X6172Y9631D01*
G01X6172Y9631D02*
G01X6227Y9613D01*
G01X6227Y9613D02*
G01X6245Y9595D01*
G01X6245Y9595D02*
G01X6263Y9559D01*
G01X6263Y9559D02*
G01X6263Y9522D01*
G01X6263Y9522D02*
G01X6245Y9486D01*
G01X6245Y9486D02*
G01X6227Y9468D01*
G01X6227Y9468D02*
G01X6172Y9450D01*
G01X6172Y9450D02*
G01X6009Y9450D01*
G01X6136Y9450D02*
G01X6263Y9250D01*
G01X6681Y9540D02*
G01X6663Y9577D01*
G01X6663Y9577D02*
G01X6627Y9613D01*
G01X6627Y9613D02*
G01X6590Y9631D01*
G01X6590Y9631D02*
G01X6518Y9631D01*
G01X6518Y9631D02*
G01X6481Y9613D01*
G01X6481Y9613D02*
G01X6445Y9577D01*
G01X6445Y9577D02*
G01X6427Y9540D01*
G01X6427Y9540D02*
G01X6409Y9486D01*
G01X6409Y9486D02*
G01X6409Y9395D01*
G01X6409Y9395D02*
G01X6427Y9340D01*
G01X6427Y9340D02*
G01X6445Y9304D01*
G01X6445Y9304D02*
G01X6481Y9268D01*
G01X6481Y9268D02*
G01X6518Y9250D01*
G01X6518Y9250D02*
G01X6590Y9250D01*
G01X6590Y9250D02*
G01X6627Y9268D01*
G01X6627Y9268D02*
G01X6663Y9304D01*
G01X6663Y9304D02*
G01X6681Y9340D01*
G01X6827Y9631D02*
G01X6827Y9250D01*
G01X6827Y9631D02*
G01X7063Y9631D01*
G01X6827Y9450D02*
G01X6972Y9450D01*
G01X6827Y9250D02*
G01X7063Y9250D01*
G01X7209Y9413D02*
G01X7536Y9413D01*
G54D11*
G01X-7222Y12018D02*
G01X-7700Y12200D01*
G01X-7222Y12018D02*
G01X-7700Y11836D01*
G01X-7540Y12131D02*
G01X-7540Y11904D01*
G01X-7222Y11654D02*
G01X-7700Y11654D01*
G01X-7222Y11654D02*
G01X-7222Y11450D01*
G01X-7222Y11450D02*
G01X-7245Y11381D01*
G01X-7245Y11381D02*
G01X-7268Y11359D01*
G01X-7268Y11359D02*
G01X-7313Y11336D01*
G01X-7313Y11336D02*
G01X-7381Y11336D01*
G01X-7381Y11336D02*
G01X-7427Y11359D01*
G01X-7427Y11359D02*
G01X-7450Y11381D01*
G01X-7450Y11381D02*
G01X-7472Y11450D01*
G01X-7472Y11450D02*
G01X-7472Y11654D01*
G01X-7222Y11154D02*
G01X-7700Y11154D01*
G01X-7222Y11154D02*
G01X-7222Y10950D01*
G01X-7222Y10950D02*
G01X-7245Y10881D01*
G01X-7245Y10881D02*
G01X-7268Y10859D01*
G01X-7268Y10859D02*
G01X-7313Y10836D01*
G01X-7313Y10836D02*
G01X-7359Y10836D01*
G01X-7359Y10836D02*
G01X-7404Y10859D01*
G01X-7404Y10859D02*
G01X-7427Y10881D01*
G01X-7427Y10881D02*
G01X-7450Y10950D01*
G01X-7450Y10950D02*
G01X-7450Y11154D01*
G01X-7450Y10995D02*
G01X-7700Y10836D01*
G01X-7290Y10336D02*
G01X-7245Y10381D01*
G01X-7245Y10381D02*
G01X-7222Y10450D01*
G01X-7222Y10450D02*
G01X-7222Y10540D01*
G01X-7222Y10540D02*
G01X-7245Y10609D01*
G01X-7245Y10609D02*
G01X-7290Y10654D01*
G01X-7290Y10654D02*
G01X-7336Y10654D01*
G01X-7336Y10654D02*
G01X-7381Y10631D01*
G01X-7381Y10631D02*
G01X-7404Y10609D01*
G01X-7404Y10609D02*
G01X-7427Y10563D01*
G01X-7427Y10563D02*
G01X-7472Y10427D01*
G01X-7472Y10427D02*
G01X-7495Y10381D01*
G01X-7495Y10381D02*
G01X-7518Y10359D01*
G01X-7518Y10359D02*
G01X-7563Y10336D01*
G01X-7563Y10336D02*
G01X-7631Y10336D01*
G01X-7631Y10336D02*
G01X-7677Y10381D01*
G01X-7677Y10381D02*
G01X-7700Y10450D01*
G01X-7700Y10450D02*
G01X-7700Y10540D01*
G01X-7700Y10540D02*
G01X-7677Y10609D01*
G01X-7677Y10609D02*
G01X-7631Y10654D01*
G01X-7222Y9790D02*
G01X-7700Y9677D01*
G01X-7222Y9563D02*
G01X-7700Y9677D01*
G01X-7222Y9563D02*
G01X-7700Y9450D01*
G01X-7222Y9336D02*
G01X-7700Y9450D01*
G01X-7222Y9018D02*
G01X-7245Y9063D01*
G01X-7245Y9063D02*
G01X-7290Y9109D01*
G01X-7290Y9109D02*
G01X-7336Y9131D01*
G01X-7336Y9131D02*
G01X-7404Y9154D01*
G01X-7404Y9154D02*
G01X-7518Y9154D01*
G01X-7518Y9154D02*
G01X-7586Y9131D01*
G01X-7586Y9131D02*
G01X-7631Y9109D01*
G01X-7631Y9109D02*
G01X-7677Y9063D01*
G01X-7677Y9063D02*
G01X-7700Y9018D01*
G01X-7700Y9018D02*
G01X-7700Y8927D01*
G01X-7700Y8927D02*
G01X-7677Y8881D01*
G01X-7677Y8881D02*
G01X-7631Y8836D01*
G01X-7631Y8836D02*
G01X-7586Y8813D01*
G01X-7586Y8813D02*
G01X-7518Y8790D01*
G01X-7518Y8790D02*
G01X-7404Y8790D01*
G01X-7404Y8790D02*
G01X-7336Y8813D01*
G01X-7336Y8813D02*
G01X-7290Y8836D01*
G01X-7290Y8836D02*
G01X-7245Y8881D01*
G01X-7245Y8881D02*
G01X-7222Y8927D01*
G01X-7222Y8927D02*
G01X-7222Y9018D01*
G01X-7222Y8609D02*
G01X-7700Y8609D01*
G01X-7222Y8609D02*
G01X-7222Y8404D01*
G01X-7222Y8404D02*
G01X-7245Y8336D01*
G01X-7245Y8336D02*
G01X-7268Y8313D01*
G01X-7268Y8313D02*
G01X-7313Y8290D01*
G01X-7313Y8290D02*
G01X-7359Y8290D01*
G01X-7359Y8290D02*
G01X-7404Y8313D01*
G01X-7404Y8313D02*
G01X-7427Y8336D01*
G01X-7427Y8336D02*
G01X-7450Y8404D01*
G01X-7450Y8404D02*
G01X-7450Y8609D01*
G01X-7450Y8450D02*
G01X-7700Y8290D01*
G01X-7222Y8109D02*
G01X-7700Y8109D01*
G01X-7700Y8109D02*
G01X-7700Y7836D01*
G01X-7222Y7654D02*
G01X-7700Y7654D01*
G01X-7222Y7654D02*
G01X-7222Y7495D01*
G01X-7222Y7495D02*
G01X-7245Y7427D01*
G01X-7245Y7427D02*
G01X-7290Y7381D01*
G01X-7290Y7381D02*
G01X-7336Y7359D01*
G01X-7336Y7359D02*
G01X-7404Y7336D01*
G01X-7404Y7336D02*
G01X-7518Y7336D01*
G01X-7518Y7336D02*
G01X-7586Y7359D01*
G01X-7586Y7359D02*
G01X-7631Y7381D01*
G01X-7631Y7381D02*
G01X-7677Y7427D01*
G01X-7677Y7427D02*
G01X-7700Y7495D01*
G01X-7700Y7495D02*
G01X-7700Y7654D01*
G01X-7677Y7109D02*
G01X-7700Y7131D01*
G01X-7700Y7131D02*
G01X-7677Y7154D01*
G01X-7677Y7154D02*
G01X-7654Y7131D01*
G01X-7654Y7131D02*
G01X-7677Y7109D01*
G01X-7677Y7109D02*
G01X-7722Y7109D01*
G01X-7722Y7109D02*
G01X-7768Y7131D01*
G01X-7768Y7131D02*
G01X-7790Y7154D01*
G01X-7222Y6563D02*
G01X-7700Y6563D01*
G01X-7700Y6563D02*
G01X-7700Y6290D01*
G01X-7222Y6109D02*
G01X-7700Y6109D01*
G01X-7700Y6109D02*
G01X-7700Y5836D01*
G01X-7336Y5313D02*
G01X-7290Y5336D01*
G01X-7290Y5336D02*
G01X-7245Y5381D01*
G01X-7245Y5381D02*
G01X-7222Y5427D01*
G01X-7222Y5427D02*
G01X-7222Y5518D01*
G01X-7222Y5518D02*
G01X-7245Y5563D01*
G01X-7245Y5563D02*
G01X-7290Y5609D01*
G01X-7290Y5609D02*
G01X-7336Y5631D01*
G01X-7336Y5631D02*
G01X-7404Y5654D01*
G01X-7404Y5654D02*
G01X-7518Y5654D01*
G01X-7518Y5654D02*
G01X-7586Y5631D01*
G01X-7586Y5631D02*
G01X-7631Y5609D01*
G01X-7631Y5609D02*
G01X-7677Y5563D01*
G01X-7677Y5563D02*
G01X-7700Y5518D01*
G01X-7700Y5518D02*
G01X-7700Y5427D01*
G01X-7700Y5427D02*
G01X-7677Y5381D01*
G01X-7677Y5381D02*
G01X-7631Y5336D01*
G01X-7631Y5336D02*
G01X-7586Y5313D01*
G54D15*
G01X3784Y16795D02*
G01X3784Y16829D01*
G01X3784Y16829D02*
G01X3818Y16897D01*
G01X3818Y16897D02*
G01X3852Y16931D01*
G01X3852Y16931D02*
G01X3920Y16965D01*
G01X3920Y16965D02*
G01X4056Y16965D01*
G01X4056Y16965D02*
G01X4125Y16931D01*
G01X4125Y16931D02*
G01X4159Y16897D01*
G01X4159Y16897D02*
G01X4193Y16829D01*
G01X4193Y16829D02*
G01X4193Y16761D01*
G01X4193Y16761D02*
G01X4159Y16693D01*
G01X4159Y16693D02*
G01X4090Y16590D01*
G01X4090Y16590D02*
G01X3750Y16250D01*
G01X3750Y16250D02*
G01X4227Y16250D01*
G01X5556Y16795D02*
G01X5522Y16863D01*
G01X5522Y16863D02*
G01X5454Y16931D01*
G01X5454Y16931D02*
G01X5386Y16965D01*
G01X5386Y16965D02*
G01X5249Y16965D01*
G01X5249Y16965D02*
G01X5181Y16931D01*
G01X5181Y16931D02*
G01X5113Y16863D01*
G01X5113Y16863D02*
G01X5079Y16795D01*
G01X5079Y16795D02*
G01X5045Y16693D01*
G01X5045Y16693D02*
G01X5045Y16522D01*
G01X5045Y16522D02*
G01X5079Y16420D01*
G01X5079Y16420D02*
G01X5113Y16352D01*
G01X5113Y16352D02*
G01X5181Y16284D01*
G01X5181Y16284D02*
G01X5249Y16250D01*
G01X5249Y16250D02*
G01X5386Y16250D01*
G01X5386Y16250D02*
G01X5454Y16284D01*
G01X5454Y16284D02*
G01X5522Y16352D01*
G01X5522Y16352D02*
G01X5556Y16420D01*
G01X5829Y16965D02*
G01X5829Y16250D01*
G01X6306Y16965D02*
G01X6306Y16250D01*
G01X5829Y16625D02*
G01X6306Y16625D01*
G01X2750Y15965D02*
G01X2750Y15454D01*
G01X2750Y15454D02*
G01X2784Y15352D01*
G01X2784Y15352D02*
G01X2852Y15284D01*
G01X2852Y15284D02*
G01X2954Y15250D01*
G01X2954Y15250D02*
G01X3022Y15250D01*
G01X3022Y15250D02*
G01X3125Y15284D01*
G01X3125Y15284D02*
G01X3193Y15352D01*
G01X3193Y15352D02*
G01X3227Y15454D01*
G01X3227Y15454D02*
G01X3227Y15965D01*
G01X3977Y15863D02*
G01X3909Y15931D01*
G01X3909Y15931D02*
G01X3806Y15965D01*
G01X3806Y15965D02*
G01X3670Y15965D01*
G01X3670Y15965D02*
G01X3568Y15931D01*
G01X3568Y15931D02*
G01X3500Y15863D01*
G01X3500Y15863D02*
G01X3500Y15795D01*
G01X3500Y15795D02*
G01X3534Y15727D01*
G01X3534Y15727D02*
G01X3568Y15693D01*
G01X3568Y15693D02*
G01X3636Y15659D01*
G01X3636Y15659D02*
G01X3840Y15590D01*
G01X3840Y15590D02*
G01X3909Y15556D01*
G01X3909Y15556D02*
G01X3943Y15522D01*
G01X3943Y15522D02*
G01X3977Y15454D01*
G01X3977Y15454D02*
G01X3977Y15352D01*
G01X3977Y15352D02*
G01X3909Y15284D01*
G01X3909Y15284D02*
G01X3806Y15250D01*
G01X3806Y15250D02*
G01X3670Y15250D01*
G01X3670Y15250D02*
G01X3568Y15284D01*
G01X3568Y15284D02*
G01X3500Y15352D01*
G01X4250Y15965D02*
G01X4250Y15250D01*
G01X4250Y15965D02*
G01X4556Y15965D01*
G01X4556Y15965D02*
G01X4659Y15931D01*
G01X4659Y15931D02*
G01X4693Y15897D01*
G01X4693Y15897D02*
G01X4727Y15829D01*
G01X4727Y15829D02*
G01X4727Y15761D01*
G01X4727Y15761D02*
G01X4693Y15693D01*
G01X4693Y15693D02*
G01X4659Y15659D01*
G01X4659Y15659D02*
G01X4556Y15625D01*
G01X4250Y15625D02*
G01X4556Y15625D01*
G01X4556Y15625D02*
G01X4659Y15590D01*
G01X4659Y15590D02*
G01X4693Y15556D01*
G01X4693Y15556D02*
G01X4727Y15488D01*
G01X4727Y15488D02*
G01X4727Y15386D01*
G01X4727Y15386D02*
G01X4693Y15318D01*
G01X4693Y15318D02*
G01X4659Y15284D01*
G01X4659Y15284D02*
G01X4556Y15250D01*
G01X4556Y15250D02*
G01X4250Y15250D01*
G01X5545Y15965D02*
G01X5545Y15250D01*
G01X5545Y15965D02*
G01X5852Y15965D01*
G01X5852Y15965D02*
G01X5954Y15931D01*
G01X5954Y15931D02*
G01X5988Y15897D01*
G01X5988Y15897D02*
G01X6022Y15829D01*
G01X6022Y15829D02*
G01X6022Y15761D01*
G01X6022Y15761D02*
G01X5988Y15693D01*
G01X5988Y15693D02*
G01X5954Y15659D01*
G01X5954Y15659D02*
G01X5852Y15625D01*
G01X5852Y15625D02*
G01X5545Y15625D01*
G01X5784Y15625D02*
G01X6022Y15250D01*
G01X6534Y15965D02*
G01X6534Y15250D01*
G01X6295Y15965D02*
G01X6772Y15965D01*
G01X7045Y15965D02*
G01X7045Y15250D01*
G01X7045Y15965D02*
G01X7284Y15965D01*
G01X7284Y15965D02*
G01X7386Y15931D01*
G01X7386Y15931D02*
G01X7454Y15863D01*
G01X7454Y15863D02*
G01X7488Y15795D01*
G01X7488Y15795D02*
G01X7522Y15693D01*
G01X7522Y15693D02*
G01X7522Y15522D01*
G01X7522Y15522D02*
G01X7488Y15420D01*
G01X7488Y15420D02*
G01X7454Y15352D01*
G01X7454Y15352D02*
G01X7386Y15284D01*
G01X7386Y15284D02*
G01X7284Y15250D01*
G01X7284Y15250D02*
G01X7045Y15250D01*
G54D13*
G01X4300Y12031D02*
G01X4300Y11650D01*
G01X4300Y12031D02*
G01X4463Y12031D01*
G01X4463Y12031D02*
G01X4518Y12013D01*
G01X4518Y12013D02*
G01X4536Y11995D01*
G01X4536Y11995D02*
G01X4554Y11959D01*
G01X4554Y11959D02*
G01X4554Y11922D01*
G01X4554Y11922D02*
G01X4536Y11886D01*
G01X4536Y11886D02*
G01X4518Y11868D01*
G01X4518Y11868D02*
G01X4463Y11850D01*
G01X4463Y11850D02*
G01X4300Y11850D01*
G01X4427Y11850D02*
G01X4554Y11650D01*
G01X4827Y12031D02*
G01X4827Y11650D01*
G01X4700Y12031D02*
G01X4954Y12031D01*
G01X5100Y12031D02*
G01X5100Y11650D01*
G01X5100Y12031D02*
G01X5227Y12031D01*
G01X5227Y12031D02*
G01X5281Y12013D01*
G01X5281Y12013D02*
G01X5318Y11977D01*
G01X5318Y11977D02*
G01X5336Y11940D01*
G01X5336Y11940D02*
G01X5354Y11886D01*
G01X5354Y11886D02*
G01X5354Y11795D01*
G01X5354Y11795D02*
G01X5336Y11740D01*
G01X5336Y11740D02*
G01X5318Y11704D01*
G01X5318Y11704D02*
G01X5281Y11668D01*
G01X5281Y11668D02*
G01X5227Y11650D01*
G01X5227Y11650D02*
G01X5100Y11650D01*
G01X5790Y12031D02*
G01X5790Y11650D01*
G01X5790Y12031D02*
G01X5954Y12031D01*
G01X5954Y12031D02*
G01X6009Y12013D01*
G01X6009Y12013D02*
G01X6027Y11995D01*
G01X6027Y11995D02*
G01X6045Y11959D01*
G01X6045Y11959D02*
G01X6045Y11904D01*
G01X6045Y11904D02*
G01X6027Y11868D01*
G01X6027Y11868D02*
G01X6009Y11850D01*
G01X6009Y11850D02*
G01X5954Y11831D01*
G01X5954Y11831D02*
G01X5790Y11831D01*
G01X6190Y11959D02*
G01X6227Y11977D01*
G01X6227Y11977D02*
G01X6281Y12031D01*
G01X6281Y12031D02*
G01X6281Y11650D01*
G01X6790Y11868D02*
G01X6790Y11886D01*
G01X6790Y11886D02*
G01X6772Y11904D01*
G01X6772Y11904D02*
G01X6754Y11904D01*
G01X6754Y11904D02*
G01X6736Y11886D01*
G01X6736Y11886D02*
G01X6718Y11850D01*
G01X6718Y11850D02*
G01X6681Y11759D01*
G01X6681Y11759D02*
G01X6645Y11704D01*
G01X6645Y11704D02*
G01X6609Y11668D01*
G01X6609Y11668D02*
G01X6572Y11650D01*
G01X6572Y11650D02*
G01X6499Y11650D01*
G01X6499Y11650D02*
G01X6463Y11668D01*
G01X6463Y11668D02*
G01X6445Y11686D01*
G01X6445Y11686D02*
G01X6427Y11722D01*
G01X6427Y11722D02*
G01X6427Y11759D01*
G01X6427Y11759D02*
G01X6445Y11795D01*
G01X6445Y11795D02*
G01X6463Y11813D01*
G01X6463Y11813D02*
G01X6590Y11886D01*
G01X6590Y11886D02*
G01X6609Y11904D01*
G01X6609Y11904D02*
G01X6627Y11940D01*
G01X6627Y11940D02*
G01X6627Y11977D01*
G01X6627Y11977D02*
G01X6609Y12013D01*
G01X6609Y12013D02*
G01X6572Y12031D01*
G01X6572Y12031D02*
G01X6536Y12013D01*
G01X6536Y12013D02*
G01X6518Y11977D01*
G01X6518Y11977D02*
G01X6518Y11940D01*
G01X6518Y11940D02*
G01X6536Y11886D01*
G01X6536Y11886D02*
G01X6572Y11831D01*
G01X6572Y11831D02*
G01X6663Y11704D01*
G01X6663Y11704D02*
G01X6699Y11668D01*
G01X6699Y11668D02*
G01X6736Y11650D01*
G01X6736Y11650D02*
G01X6772Y11650D01*
G01X6772Y11650D02*
G01X6790Y11668D01*
G01X6790Y11668D02*
G01X6790Y11686D01*
G01X6936Y12031D02*
G01X6936Y11650D01*
G01X6936Y12031D02*
G01X7099Y12031D01*
G01X7099Y12031D02*
G01X7154Y12013D01*
G01X7154Y12013D02*
G01X7172Y11995D01*
G01X7172Y11995D02*
G01X7190Y11959D01*
G01X7190Y11959D02*
G01X7190Y11904D01*
G01X7190Y11904D02*
G01X7172Y11868D01*
G01X7172Y11868D02*
G01X7154Y11850D01*
G01X7154Y11850D02*
G01X7099Y11831D01*
G01X7099Y11831D02*
G01X6936Y11831D01*
G01X7354Y11940D02*
G01X7354Y11959D01*
G01X7354Y11959D02*
G01X7372Y11995D01*
G01X7372Y11995D02*
G01X7390Y12013D01*
G01X7390Y12013D02*
G01X7427Y12031D01*
G01X7427Y12031D02*
G01X7499Y12031D01*
G01X7499Y12031D02*
G01X7536Y12013D01*
G01X7536Y12013D02*
G01X7554Y11995D01*
G01X7554Y11995D02*
G01X7572Y11959D01*
G01X7572Y11959D02*
G01X7572Y11922D01*
G01X7572Y11922D02*
G01X7554Y11886D01*
G01X7554Y11886D02*
G01X7518Y11831D01*
G01X7518Y11831D02*
G01X7336Y11650D01*
G01X7336Y11650D02*
G01X7590Y11650D01*
G01X7754Y11904D02*
G01X7736Y11886D01*
G01X7736Y11886D02*
G01X7754Y11868D01*
G01X7754Y11868D02*
G01X7772Y11886D01*
G01X7772Y11886D02*
G01X7754Y11904D01*
G01X7754Y11686D02*
G01X7736Y11668D01*
G01X7736Y11668D02*
G01X7754Y11650D01*
G01X7754Y11650D02*
G01X7772Y11668D01*
G01X7772Y11668D02*
G01X7754Y11686D01*
G01X4470Y11359D02*
G01X4506Y11377D01*
G01X4506Y11377D02*
G01X4560Y11431D01*
G01X4560Y11431D02*
G01X4560Y11050D01*
G01X4724Y11304D02*
G01X4706Y11286D01*
G01X4706Y11286D02*
G01X4724Y11268D01*
G01X4724Y11268D02*
G01X4742Y11286D01*
G01X4742Y11286D02*
G01X4724Y11304D01*
G01X4724Y11086D02*
G01X4706Y11068D01*
G01X4706Y11068D02*
G01X4724Y11050D01*
G01X4724Y11050D02*
G01X4742Y11068D01*
G01X4742Y11068D02*
G01X4724Y11086D01*
G01X5179Y11431D02*
G01X5179Y11050D01*
G01X5179Y11431D02*
G01X5415Y11431D01*
G01X5179Y11250D02*
G01X5324Y11250D01*
G01X5669Y11431D02*
G01X5633Y11413D01*
G01X5633Y11413D02*
G01X5597Y11377D01*
G01X5597Y11377D02*
G01X5579Y11340D01*
G01X5579Y11340D02*
G01X5560Y11286D01*
G01X5560Y11286D02*
G01X5560Y11195D01*
G01X5560Y11195D02*
G01X5579Y11140D01*
G01X5579Y11140D02*
G01X5597Y11104D01*
G01X5597Y11104D02*
G01X5633Y11068D01*
G01X5633Y11068D02*
G01X5669Y11050D01*
G01X5669Y11050D02*
G01X5742Y11050D01*
G01X5742Y11050D02*
G01X5779Y11068D01*
G01X5779Y11068D02*
G01X5815Y11104D01*
G01X5815Y11104D02*
G01X5833Y11140D01*
G01X5833Y11140D02*
G01X5851Y11195D01*
G01X5851Y11195D02*
G01X5851Y11286D01*
G01X5851Y11286D02*
G01X5833Y11340D01*
G01X5833Y11340D02*
G01X5815Y11377D01*
G01X5815Y11377D02*
G01X5779Y11413D01*
G01X5779Y11413D02*
G01X5742Y11431D01*
G01X5742Y11431D02*
G01X5669Y11431D01*
G01X5997Y11431D02*
G01X5997Y11050D01*
G01X5997Y11431D02*
G01X6160Y11431D01*
G01X6160Y11431D02*
G01X6215Y11413D01*
G01X6215Y11413D02*
G01X6233Y11395D01*
G01X6233Y11395D02*
G01X6251Y11359D01*
G01X6251Y11359D02*
G01X6251Y11322D01*
G01X6251Y11322D02*
G01X6233Y11286D01*
G01X6233Y11286D02*
G01X6215Y11268D01*
G01X6215Y11268D02*
G01X6160Y11250D01*
G01X6160Y11250D02*
G01X5997Y11250D01*
G01X6124Y11250D02*
G01X6251Y11050D01*
G01X6669Y11340D02*
G01X6651Y11377D01*
G01X6651Y11377D02*
G01X6615Y11413D01*
G01X6615Y11413D02*
G01X6579Y11431D01*
G01X6579Y11431D02*
G01X6506Y11431D01*
G01X6506Y11431D02*
G01X6469Y11413D01*
G01X6469Y11413D02*
G01X6433Y11377D01*
G01X6433Y11377D02*
G01X6415Y11340D01*
G01X6415Y11340D02*
G01X6397Y11286D01*
G01X6397Y11286D02*
G01X6397Y11195D01*
G01X6397Y11195D02*
G01X6415Y11140D01*
G01X6415Y11140D02*
G01X6433Y11104D01*
G01X6433Y11104D02*
G01X6469Y11068D01*
G01X6469Y11068D02*
G01X6506Y11050D01*
G01X6506Y11050D02*
G01X6579Y11050D01*
G01X6579Y11050D02*
G01X6615Y11068D01*
G01X6615Y11068D02*
G01X6651Y11104D01*
G01X6651Y11104D02*
G01X6669Y11140D01*
G01X6815Y11431D02*
G01X6815Y11050D01*
G01X6815Y11431D02*
G01X7051Y11431D01*
G01X6815Y11250D02*
G01X6960Y11250D01*
G01X6815Y11050D02*
G01X7051Y11050D01*
G01X7360Y11377D02*
G01X7360Y11050D01*
G01X7197Y11213D02*
G01X7524Y11213D01*
G54D10*
G01X-7738Y2181D02*
G01X-7738Y2193D01*
G01X-7738Y2193D02*
G01X-7727Y2215D01*
G01X-7727Y2215D02*
G01X-7715Y2227D01*
G01X-7715Y2227D02*
G01X-7693Y2238D01*
G01X-7693Y2238D02*
G01X-7647Y2238D01*
G01X-7647Y2238D02*
G01X-7625Y2227D01*
G01X-7625Y2227D02*
G01X-7613Y2215D01*
G01X-7613Y2215D02*
G01X-7602Y2193D01*
G01X-7602Y2193D02*
G01X-7602Y2170D01*
G01X-7602Y2170D02*
G01X-7613Y2147D01*
G01X-7613Y2147D02*
G01X-7636Y2113D01*
G01X-7636Y2113D02*
G01X-7750Y2000D01*
G01X-7750Y2000D02*
G01X-7590Y2000D01*
G01X-7500Y2238D02*
G01X-7443Y2000D01*
G01X-7386Y2238D02*
G01X-7443Y2000D01*
G01X-7386Y2238D02*
G01X-7329Y2000D01*
G01X-7272Y2238D02*
G01X-7329Y2000D01*
G01X-7000Y2238D02*
G01X-7000Y2000D01*
G01X-7000Y2238D02*
G01X-6897Y2238D01*
G01X-6897Y2238D02*
G01X-6863Y2227D01*
G01X-6863Y2227D02*
G01X-6852Y2215D01*
G01X-6852Y2215D02*
G01X-6840Y2193D01*
G01X-6840Y2193D02*
G01X-6840Y2170D01*
G01X-6840Y2170D02*
G01X-6852Y2147D01*
G01X-6852Y2147D02*
G01X-6863Y2136D01*
G01X-6863Y2136D02*
G01X-6897Y2125D01*
G01X-6897Y2125D02*
G01X-7000Y2125D01*
G01X-6920Y2125D02*
G01X-6840Y2000D01*
G01X-6670Y2238D02*
G01X-6670Y2000D01*
G01X-6750Y2238D02*
G01X-6590Y2238D01*
G01X-6500Y2238D02*
G01X-6500Y2000D01*
G01X-6500Y2238D02*
G01X-6420Y2238D01*
G01X-6420Y2238D02*
G01X-6386Y2227D01*
G01X-6386Y2227D02*
G01X-6363Y2204D01*
G01X-6363Y2204D02*
G01X-6352Y2181D01*
G01X-6352Y2181D02*
G01X-6340Y2147D01*
G01X-6340Y2147D02*
G01X-6340Y2090D01*
G01X-6340Y2090D02*
G01X-6352Y2056D01*
G01X-6352Y2056D02*
G01X-6363Y2034D01*
G01X-6363Y2034D02*
G01X-6386Y2011D01*
G01X-6386Y2011D02*
G01X-6420Y2000D01*
G01X-6420Y2000D02*
G01X-6500Y2000D01*
G01X-5954Y2238D02*
G01X-5954Y2056D01*
G01X-5954Y2056D02*
G01X-5965Y2022D01*
G01X-5965Y2022D02*
G01X-5977Y2011D01*
G01X-5977Y2011D02*
G01X-6000Y2000D01*
G01X-6000Y2000D02*
G01X-6022Y2000D01*
G01X-6022Y2000D02*
G01X-6045Y2011D01*
G01X-6045Y2011D02*
G01X-6056Y2022D01*
G01X-6056Y2022D02*
G01X-6068Y2056D01*
G01X-6068Y2056D02*
G01X-6068Y2079D01*
G01X-5863Y2159D02*
G01X-5863Y2045D01*
G01X-5863Y2045D02*
G01X-5852Y2011D01*
G01X-5852Y2011D02*
G01X-5829Y2000D01*
G01X-5829Y2000D02*
G01X-5795Y2000D01*
G01X-5795Y2000D02*
G01X-5772Y2011D01*
G01X-5772Y2011D02*
G01X-5738Y2045D01*
G01X-5738Y2159D02*
G01X-5738Y2000D01*
G01X-5647Y2159D02*
G01X-5647Y2000D01*
G01X-5647Y2113D02*
G01X-5613Y2147D01*
G01X-5613Y2147D02*
G01X-5590Y2159D01*
G01X-5590Y2159D02*
G01X-5556Y2159D01*
G01X-5556Y2159D02*
G01X-5534Y2147D01*
G01X-5534Y2147D02*
G01X-5522Y2113D01*
G01X-5522Y2113D02*
G01X-5522Y2000D01*
G01X-5522Y2113D02*
G01X-5488Y2147D01*
G01X-5488Y2147D02*
G01X-5465Y2159D01*
G01X-5465Y2159D02*
G01X-5431Y2159D01*
G01X-5431Y2159D02*
G01X-5409Y2147D01*
G01X-5409Y2147D02*
G01X-5397Y2113D01*
G01X-5397Y2113D02*
G01X-5397Y2000D01*
G01X-5306Y2159D02*
G01X-5306Y1920D01*
G01X-5306Y2125D02*
G01X-5284Y2147D01*
G01X-5284Y2147D02*
G01X-5261Y2159D01*
G01X-5261Y2159D02*
G01X-5227Y2159D01*
G01X-5227Y2159D02*
G01X-5204Y2147D01*
G01X-5204Y2147D02*
G01X-5181Y2125D01*
G01X-5181Y2125D02*
G01X-5170Y2090D01*
G01X-5170Y2090D02*
G01X-5170Y2068D01*
G01X-5170Y2068D02*
G01X-5181Y2034D01*
G01X-5181Y2034D02*
G01X-5204Y2011D01*
G01X-5204Y2011D02*
G01X-5227Y2000D01*
G01X-5227Y2000D02*
G01X-5261Y2000D01*
G01X-5261Y2000D02*
G01X-5284Y2011D01*
G01X-5284Y2011D02*
G01X-5306Y2034D01*
G01X-5079Y2090D02*
G01X-4943Y2090D01*
G01X-4943Y2090D02*
G01X-4943Y2113D01*
G01X-4943Y2113D02*
G01X-4954Y2136D01*
G01X-4954Y2136D02*
G01X-4965Y2147D01*
G01X-4965Y2147D02*
G01X-4988Y2159D01*
G01X-4988Y2159D02*
G01X-5022Y2159D01*
G01X-5022Y2159D02*
G01X-5045Y2147D01*
G01X-5045Y2147D02*
G01X-5068Y2125D01*
G01X-5068Y2125D02*
G01X-5079Y2090D01*
G01X-5079Y2090D02*
G01X-5079Y2068D01*
G01X-5079Y2068D02*
G01X-5068Y2034D01*
G01X-5068Y2034D02*
G01X-5045Y2011D01*
G01X-5045Y2011D02*
G01X-5022Y2000D01*
G01X-5022Y2000D02*
G01X-4988Y2000D01*
G01X-4988Y2000D02*
G01X-4965Y2011D01*
G01X-4965Y2011D02*
G01X-4943Y2034D01*
G01X-4852Y2159D02*
G01X-4852Y2000D01*
G01X-4852Y2090D02*
G01X-4840Y2125D01*
G01X-4840Y2125D02*
G01X-4818Y2147D01*
G01X-4818Y2147D02*
G01X-4795Y2159D01*
G01X-4795Y2159D02*
G01X-4761Y2159D01*
G01X-4659Y2159D02*
G01X-4670Y2147D01*
G01X-4670Y2147D02*
G01X-4659Y2136D01*
G01X-4659Y2136D02*
G01X-4647Y2147D01*
G01X-4647Y2147D02*
G01X-4659Y2159D01*
G01X-4659Y2022D02*
G01X-4670Y2011D01*
G01X-4670Y2011D02*
G01X-4659Y2000D01*
G01X-4659Y2000D02*
G01X-4647Y2011D01*
G01X-4647Y2011D02*
G01X-4659Y2022D01*
G01X-7750Y1738D02*
G01X-7750Y1500D01*
G01X-7750Y1738D02*
G01X-7602Y1738D01*
G01X-7750Y1625D02*
G01X-7659Y1625D01*
G01X-7443Y1738D02*
G01X-7465Y1727D01*
G01X-7465Y1727D02*
G01X-7488Y1704D01*
G01X-7488Y1704D02*
G01X-7500Y1681D01*
G01X-7500Y1681D02*
G01X-7511Y1647D01*
G01X-7511Y1647D02*
G01X-7511Y1590D01*
G01X-7511Y1590D02*
G01X-7500Y1556D01*
G01X-7500Y1556D02*
G01X-7488Y1534D01*
G01X-7488Y1534D02*
G01X-7465Y1511D01*
G01X-7465Y1511D02*
G01X-7443Y1500D01*
G01X-7443Y1500D02*
G01X-7397Y1500D01*
G01X-7397Y1500D02*
G01X-7375Y1511D01*
G01X-7375Y1511D02*
G01X-7352Y1534D01*
G01X-7352Y1534D02*
G01X-7340Y1556D01*
G01X-7340Y1556D02*
G01X-7329Y1590D01*
G01X-7329Y1590D02*
G01X-7329Y1647D01*
G01X-7329Y1647D02*
G01X-7340Y1681D01*
G01X-7340Y1681D02*
G01X-7352Y1704D01*
G01X-7352Y1704D02*
G01X-7375Y1727D01*
G01X-7375Y1727D02*
G01X-7397Y1738D01*
G01X-7397Y1738D02*
G01X-7443Y1738D01*
G01X-7238Y1738D02*
G01X-7238Y1500D01*
G01X-7238Y1738D02*
G01X-7136Y1738D01*
G01X-7136Y1738D02*
G01X-7102Y1727D01*
G01X-7102Y1727D02*
G01X-7090Y1715D01*
G01X-7090Y1715D02*
G01X-7079Y1693D01*
G01X-7079Y1693D02*
G01X-7079Y1670D01*
G01X-7079Y1670D02*
G01X-7090Y1647D01*
G01X-7090Y1647D02*
G01X-7102Y1636D01*
G01X-7102Y1636D02*
G01X-7136Y1625D01*
G01X-7136Y1625D02*
G01X-7238Y1625D01*
G01X-7159Y1625D02*
G01X-7079Y1500D01*
G01X-6818Y1681D02*
G01X-6829Y1704D01*
G01X-6829Y1704D02*
G01X-6852Y1727D01*
G01X-6852Y1727D02*
G01X-6875Y1738D01*
G01X-6875Y1738D02*
G01X-6920Y1738D01*
G01X-6920Y1738D02*
G01X-6943Y1727D01*
G01X-6943Y1727D02*
G01X-6965Y1704D01*
G01X-6965Y1704D02*
G01X-6977Y1681D01*
G01X-6977Y1681D02*
G01X-6988Y1647D01*
G01X-6988Y1647D02*
G01X-6988Y1590D01*
G01X-6988Y1590D02*
G01X-6977Y1556D01*
G01X-6977Y1556D02*
G01X-6965Y1534D01*
G01X-6965Y1534D02*
G01X-6943Y1511D01*
G01X-6943Y1511D02*
G01X-6920Y1500D01*
G01X-6920Y1500D02*
G01X-6875Y1500D01*
G01X-6875Y1500D02*
G01X-6852Y1511D01*
G01X-6852Y1511D02*
G01X-6829Y1534D01*
G01X-6829Y1534D02*
G01X-6818Y1556D01*
G01X-6727Y1738D02*
G01X-6727Y1500D01*
G01X-6727Y1738D02*
G01X-6579Y1738D01*
G01X-6727Y1625D02*
G01X-6636Y1625D01*
G01X-6727Y1500D02*
G01X-6579Y1500D01*
G01X-6386Y1704D02*
G01X-6386Y1500D01*
G01X-6488Y1602D02*
G01X-6284Y1602D01*
G01X-6011Y1738D02*
G01X-6011Y1500D01*
G01X-6011Y1738D02*
G01X-5909Y1738D01*
G01X-5909Y1738D02*
G01X-5875Y1727D01*
G01X-5875Y1727D02*
G01X-5863Y1715D01*
G01X-5863Y1715D02*
G01X-5852Y1693D01*
G01X-5852Y1693D02*
G01X-5852Y1670D01*
G01X-5852Y1670D02*
G01X-5863Y1647D01*
G01X-5863Y1647D02*
G01X-5875Y1636D01*
G01X-5875Y1636D02*
G01X-5909Y1625D01*
G01X-5909Y1625D02*
G01X-6011Y1625D01*
G01X-5931Y1625D02*
G01X-5852Y1500D01*
G01X-5681Y1738D02*
G01X-5681Y1500D01*
G01X-5761Y1738D02*
G01X-5602Y1738D01*
G01X-5511Y1738D02*
G01X-5511Y1500D01*
G01X-5511Y1738D02*
G01X-5431Y1738D01*
G01X-5431Y1738D02*
G01X-5397Y1727D01*
G01X-5397Y1727D02*
G01X-5375Y1704D01*
G01X-5375Y1704D02*
G01X-5363Y1681D01*
G01X-5363Y1681D02*
G01X-5352Y1647D01*
G01X-5352Y1647D02*
G01X-5352Y1590D01*
G01X-5352Y1590D02*
G01X-5363Y1556D01*
G01X-5363Y1556D02*
G01X-5375Y1534D01*
G01X-5375Y1534D02*
G01X-5397Y1511D01*
G01X-5397Y1511D02*
G01X-5431Y1500D01*
G01X-5431Y1500D02*
G01X-5511Y1500D01*
G01X-5159Y1704D02*
G01X-5159Y1500D01*
G01X-5261Y1602D02*
G01X-5056Y1602D01*
G01X-7750Y1238D02*
G01X-7750Y1000D01*
G01X-7750Y1238D02*
G01X-7647Y1238D01*
G01X-7647Y1238D02*
G01X-7613Y1227D01*
G01X-7613Y1227D02*
G01X-7602Y1215D01*
G01X-7602Y1215D02*
G01X-7590Y1193D01*
G01X-7590Y1193D02*
G01X-7590Y1170D01*
G01X-7590Y1170D02*
G01X-7602Y1147D01*
G01X-7602Y1147D02*
G01X-7613Y1136D01*
G01X-7613Y1136D02*
G01X-7647Y1125D01*
G01X-7647Y1125D02*
G01X-7750Y1125D01*
G01X-7670Y1125D02*
G01X-7590Y1000D01*
G01X-7420Y1238D02*
G01X-7420Y1000D01*
G01X-7500Y1238D02*
G01X-7340Y1238D01*
G01X-7250Y1238D02*
G01X-7250Y1000D01*
G01X-7250Y1238D02*
G01X-7170Y1238D01*
G01X-7170Y1238D02*
G01X-7136Y1227D01*
G01X-7136Y1227D02*
G01X-7113Y1204D01*
G01X-7113Y1204D02*
G01X-7102Y1181D01*
G01X-7102Y1181D02*
G01X-7090Y1147D01*
G01X-7090Y1147D02*
G01X-7090Y1090D01*
G01X-7090Y1090D02*
G01X-7102Y1056D01*
G01X-7102Y1056D02*
G01X-7113Y1034D01*
G01X-7113Y1034D02*
G01X-7136Y1011D01*
G01X-7136Y1011D02*
G01X-7170Y1000D01*
G01X-7170Y1000D02*
G01X-7250Y1000D01*
G01X-7000Y1102D02*
G01X-6795Y1102D01*
G01X-6522Y1238D02*
G01X-6522Y1000D01*
G01X-6522Y1238D02*
G01X-6375Y1238D01*
G01X-6522Y1125D02*
G01X-6431Y1125D01*
G01X-6215Y1238D02*
G01X-6238Y1227D01*
G01X-6238Y1227D02*
G01X-6261Y1204D01*
G01X-6261Y1204D02*
G01X-6272Y1181D01*
G01X-6272Y1181D02*
G01X-6284Y1147D01*
G01X-6284Y1147D02*
G01X-6284Y1090D01*
G01X-6284Y1090D02*
G01X-6272Y1056D01*
G01X-6272Y1056D02*
G01X-6261Y1034D01*
G01X-6261Y1034D02*
G01X-6238Y1011D01*
G01X-6238Y1011D02*
G01X-6215Y1000D01*
G01X-6215Y1000D02*
G01X-6170Y1000D01*
G01X-6170Y1000D02*
G01X-6147Y1011D01*
G01X-6147Y1011D02*
G01X-6125Y1034D01*
G01X-6125Y1034D02*
G01X-6113Y1056D01*
G01X-6113Y1056D02*
G01X-6102Y1090D01*
G01X-6102Y1090D02*
G01X-6102Y1147D01*
G01X-6102Y1147D02*
G01X-6113Y1181D01*
G01X-6113Y1181D02*
G01X-6125Y1204D01*
G01X-6125Y1204D02*
G01X-6147Y1227D01*
G01X-6147Y1227D02*
G01X-6170Y1238D01*
G01X-6170Y1238D02*
G01X-6215Y1238D01*
G01X-6011Y1238D02*
G01X-6011Y1000D01*
G01X-6011Y1238D02*
G01X-5909Y1238D01*
G01X-5909Y1238D02*
G01X-5875Y1227D01*
G01X-5875Y1227D02*
G01X-5863Y1215D01*
G01X-5863Y1215D02*
G01X-5852Y1193D01*
G01X-5852Y1193D02*
G01X-5852Y1170D01*
G01X-5852Y1170D02*
G01X-5863Y1147D01*
G01X-5863Y1147D02*
G01X-5875Y1136D01*
G01X-5875Y1136D02*
G01X-5909Y1125D01*
G01X-5909Y1125D02*
G01X-6011Y1125D01*
G01X-5931Y1125D02*
G01X-5852Y1000D01*
G01X-5590Y1181D02*
G01X-5602Y1204D01*
G01X-5602Y1204D02*
G01X-5625Y1227D01*
G01X-5625Y1227D02*
G01X-5647Y1238D01*
G01X-5647Y1238D02*
G01X-5693Y1238D01*
G01X-5693Y1238D02*
G01X-5715Y1227D01*
G01X-5715Y1227D02*
G01X-5738Y1204D01*
G01X-5738Y1204D02*
G01X-5750Y1181D01*
G01X-5750Y1181D02*
G01X-5761Y1147D01*
G01X-5761Y1147D02*
G01X-5761Y1090D01*
G01X-5761Y1090D02*
G01X-5750Y1056D01*
G01X-5750Y1056D02*
G01X-5738Y1034D01*
G01X-5738Y1034D02*
G01X-5715Y1011D01*
G01X-5715Y1011D02*
G01X-5693Y1000D01*
G01X-5693Y1000D02*
G01X-5647Y1000D01*
G01X-5647Y1000D02*
G01X-5625Y1011D01*
G01X-5625Y1011D02*
G01X-5602Y1034D01*
G01X-5602Y1034D02*
G01X-5590Y1056D01*
G01X-5500Y1238D02*
G01X-5500Y1000D01*
G01X-5500Y1238D02*
G01X-5352Y1238D01*
G01X-5500Y1125D02*
G01X-5409Y1125D01*
G01X-5500Y1000D02*
G01X-5352Y1000D01*
G01X-5261Y1102D02*
G01X-5056Y1102D01*
G01X-7750Y2738D02*
G01X-7750Y2500D01*
G01X-7750Y2738D02*
G01X-7602Y2738D01*
G01X-7750Y2625D02*
G01X-7659Y2625D01*
G01X-7454Y2659D02*
G01X-7477Y2647D01*
G01X-7477Y2647D02*
G01X-7500Y2625D01*
G01X-7500Y2625D02*
G01X-7511Y2590D01*
G01X-7511Y2590D02*
G01X-7511Y2568D01*
G01X-7511Y2568D02*
G01X-7500Y2534D01*
G01X-7500Y2534D02*
G01X-7477Y2511D01*
G01X-7477Y2511D02*
G01X-7454Y2500D01*
G01X-7454Y2500D02*
G01X-7420Y2500D01*
G01X-7420Y2500D02*
G01X-7397Y2511D01*
G01X-7397Y2511D02*
G01X-7375Y2534D01*
G01X-7375Y2534D02*
G01X-7363Y2568D01*
G01X-7363Y2568D02*
G01X-7363Y2590D01*
G01X-7363Y2590D02*
G01X-7375Y2625D01*
G01X-7375Y2625D02*
G01X-7397Y2647D01*
G01X-7397Y2647D02*
G01X-7420Y2659D01*
G01X-7420Y2659D02*
G01X-7454Y2659D01*
G01X-7272Y2659D02*
G01X-7272Y2500D01*
G01X-7272Y2590D02*
G01X-7261Y2625D01*
G01X-7261Y2625D02*
G01X-7238Y2647D01*
G01X-7238Y2647D02*
G01X-7215Y2659D01*
G01X-7215Y2659D02*
G01X-7181Y2659D01*
G01X4750Y2488D02*
G01X4750Y2250D01*
G01X4750Y2488D02*
G01X4897Y2488D01*
G01X4750Y2375D02*
G01X4840Y2375D01*
G01X5045Y2409D02*
G01X5022Y2397D01*
G01X5022Y2397D02*
G01X4999Y2375D01*
G01X4999Y2375D02*
G01X4988Y2340D01*
G01X4988Y2340D02*
G01X4988Y2318D01*
G01X4988Y2318D02*
G01X4999Y2284D01*
G01X4999Y2284D02*
G01X5022Y2261D01*
G01X5022Y2261D02*
G01X5045Y2250D01*
G01X5045Y2250D02*
G01X5079Y2250D01*
G01X5079Y2250D02*
G01X5102Y2261D01*
G01X5102Y2261D02*
G01X5124Y2284D01*
G01X5124Y2284D02*
G01X5136Y2318D01*
G01X5136Y2318D02*
G01X5136Y2340D01*
G01X5136Y2340D02*
G01X5124Y2375D01*
G01X5124Y2375D02*
G01X5102Y2397D01*
G01X5102Y2397D02*
G01X5079Y2409D01*
G01X5079Y2409D02*
G01X5045Y2409D01*
G01X5227Y2409D02*
G01X5227Y2250D01*
G01X5227Y2340D02*
G01X5238Y2375D01*
G01X5238Y2375D02*
G01X5261Y2397D01*
G01X5261Y2397D02*
G01X5284Y2409D01*
G01X5284Y2409D02*
G01X5318Y2409D01*
G01X4772Y1988D02*
G01X4897Y1988D01*
G01X4897Y1988D02*
G01X4829Y1897D01*
G01X4829Y1897D02*
G01X4863Y1897D01*
G01X4863Y1897D02*
G01X4886Y1886D01*
G01X4886Y1886D02*
G01X4897Y1875D01*
G01X4897Y1875D02*
G01X4909Y1840D01*
G01X4909Y1840D02*
G01X4909Y1818D01*
G01X4909Y1818D02*
G01X4897Y1784D01*
G01X4897Y1784D02*
G01X4875Y1761D01*
G01X4875Y1761D02*
G01X4840Y1750D01*
G01X4840Y1750D02*
G01X4806Y1750D01*
G01X4806Y1750D02*
G01X4772Y1761D01*
G01X4772Y1761D02*
G01X4761Y1772D01*
G01X4761Y1772D02*
G01X4750Y1795D01*
G01X5000Y1988D02*
G01X5056Y1750D01*
G01X5113Y1988D02*
G01X5056Y1750D01*
G01X5113Y1988D02*
G01X5170Y1750D01*
G01X5227Y1988D02*
G01X5170Y1750D01*
G01X5500Y1988D02*
G01X5500Y1750D01*
G01X5500Y1988D02*
G01X5602Y1988D01*
G01X5602Y1988D02*
G01X5636Y1977D01*
G01X5636Y1977D02*
G01X5647Y1965D01*
G01X5647Y1965D02*
G01X5659Y1943D01*
G01X5659Y1943D02*
G01X5659Y1920D01*
G01X5659Y1920D02*
G01X5647Y1897D01*
G01X5647Y1897D02*
G01X5636Y1886D01*
G01X5636Y1886D02*
G01X5602Y1875D01*
G01X5602Y1875D02*
G01X5500Y1875D01*
G01X5579Y1875D02*
G01X5659Y1750D01*
G01X5829Y1988D02*
G01X5829Y1750D01*
G01X5750Y1988D02*
G01X5909Y1988D01*
G01X6000Y1988D02*
G01X6000Y1750D01*
G01X6000Y1988D02*
G01X6079Y1988D01*
G01X6079Y1988D02*
G01X6113Y1977D01*
G01X6113Y1977D02*
G01X6136Y1954D01*
G01X6136Y1954D02*
G01X6147Y1931D01*
G01X6147Y1931D02*
G01X6159Y1897D01*
G01X6159Y1897D02*
G01X6159Y1840D01*
G01X6159Y1840D02*
G01X6147Y1806D01*
G01X6147Y1806D02*
G01X6136Y1784D01*
G01X6136Y1784D02*
G01X6113Y1761D01*
G01X6113Y1761D02*
G01X6079Y1750D01*
G01X6079Y1750D02*
G01X6000Y1750D01*
G01X6545Y1988D02*
G01X6545Y1806D01*
G01X6545Y1806D02*
G01X6534Y1772D01*
G01X6534Y1772D02*
G01X6522Y1761D01*
G01X6522Y1761D02*
G01X6499Y1750D01*
G01X6499Y1750D02*
G01X6477Y1750D01*
G01X6477Y1750D02*
G01X6454Y1761D01*
G01X6454Y1761D02*
G01X6443Y1772D01*
G01X6443Y1772D02*
G01X6431Y1806D01*
G01X6431Y1806D02*
G01X6431Y1829D01*
G01X6636Y1909D02*
G01X6636Y1795D01*
G01X6636Y1795D02*
G01X6647Y1761D01*
G01X6647Y1761D02*
G01X6670Y1750D01*
G01X6670Y1750D02*
G01X6704Y1750D01*
G01X6704Y1750D02*
G01X6727Y1761D01*
G01X6727Y1761D02*
G01X6761Y1795D01*
G01X6761Y1909D02*
G01X6761Y1750D01*
G01X6852Y1909D02*
G01X6852Y1750D01*
G01X6852Y1863D02*
G01X6886Y1897D01*
G01X6886Y1897D02*
G01X6909Y1909D01*
G01X6909Y1909D02*
G01X6943Y1909D01*
G01X6943Y1909D02*
G01X6965Y1897D01*
G01X6965Y1897D02*
G01X6977Y1863D01*
G01X6977Y1863D02*
G01X6977Y1750D01*
G01X6977Y1863D02*
G01X7011Y1897D01*
G01X7011Y1897D02*
G01X7034Y1909D01*
G01X7034Y1909D02*
G01X7068Y1909D01*
G01X7068Y1909D02*
G01X7090Y1897D01*
G01X7090Y1897D02*
G01X7102Y1863D01*
G01X7102Y1863D02*
G01X7102Y1750D01*
G01X7193Y1909D02*
G01X7193Y1670D01*
G01X7193Y1875D02*
G01X7215Y1897D01*
G01X7215Y1897D02*
G01X7238Y1909D01*
G01X7238Y1909D02*
G01X7272Y1909D01*
G01X7272Y1909D02*
G01X7295Y1897D01*
G01X7295Y1897D02*
G01X7318Y1875D01*
G01X7318Y1875D02*
G01X7329Y1840D01*
G01X7329Y1840D02*
G01X7329Y1818D01*
G01X7329Y1818D02*
G01X7318Y1784D01*
G01X7318Y1784D02*
G01X7295Y1761D01*
G01X7295Y1761D02*
G01X7272Y1750D01*
G01X7272Y1750D02*
G01X7238Y1750D01*
G01X7238Y1750D02*
G01X7215Y1761D01*
G01X7215Y1761D02*
G01X7193Y1784D01*
G01X7420Y1840D02*
G01X7556Y1840D01*
G01X7556Y1840D02*
G01X7556Y1863D01*
G01X7556Y1863D02*
G01X7545Y1886D01*
G01X7545Y1886D02*
G01X7534Y1897D01*
G01X7534Y1897D02*
G01X7511Y1909D01*
G01X7511Y1909D02*
G01X7477Y1909D01*
G01X7477Y1909D02*
G01X7454Y1897D01*
G01X7454Y1897D02*
G01X7431Y1875D01*
G01X7431Y1875D02*
G01X7420Y1840D01*
G01X7420Y1840D02*
G01X7420Y1818D01*
G01X7420Y1818D02*
G01X7431Y1784D01*
G01X7431Y1784D02*
G01X7454Y1761D01*
G01X7454Y1761D02*
G01X7477Y1750D01*
G01X7477Y1750D02*
G01X7511Y1750D01*
G01X7511Y1750D02*
G01X7534Y1761D01*
G01X7534Y1761D02*
G01X7556Y1784D01*
G01X7647Y1909D02*
G01X7647Y1750D01*
G01X7647Y1840D02*
G01X7659Y1875D01*
G01X7659Y1875D02*
G01X7681Y1897D01*
G01X7681Y1897D02*
G01X7704Y1909D01*
G01X7704Y1909D02*
G01X7738Y1909D01*
G01X7840Y1909D02*
G01X7829Y1897D01*
G01X7829Y1897D02*
G01X7840Y1886D01*
G01X7840Y1886D02*
G01X7852Y1897D01*
G01X7852Y1897D02*
G01X7840Y1909D01*
G01X7840Y1772D02*
G01X7829Y1761D01*
G01X7829Y1761D02*
G01X7840Y1750D01*
G01X7840Y1750D02*
G01X7852Y1761D01*
G01X7852Y1761D02*
G01X7840Y1772D01*
G01X4750Y1488D02*
G01X4750Y1250D01*
G01X4750Y1488D02*
G01X4852Y1488D01*
G01X4852Y1488D02*
G01X4886Y1477D01*
G01X4886Y1477D02*
G01X4897Y1465D01*
G01X4897Y1465D02*
G01X4909Y1443D01*
G01X4909Y1443D02*
G01X4909Y1420D01*
G01X4909Y1420D02*
G01X4897Y1397D01*
G01X4897Y1397D02*
G01X4886Y1386D01*
G01X4886Y1386D02*
G01X4852Y1375D01*
G01X4852Y1375D02*
G01X4750Y1375D01*
G01X4829Y1375D02*
G01X4909Y1250D01*
G01X5079Y1488D02*
G01X5079Y1250D01*
G01X5000Y1488D02*
G01X5159Y1488D01*
G01X5250Y1488D02*
G01X5250Y1250D01*
G01X5250Y1488D02*
G01X5329Y1488D01*
G01X5329Y1488D02*
G01X5363Y1477D01*
G01X5363Y1477D02*
G01X5386Y1454D01*
G01X5386Y1454D02*
G01X5397Y1431D01*
G01X5397Y1431D02*
G01X5409Y1397D01*
G01X5409Y1397D02*
G01X5409Y1340D01*
G01X5409Y1340D02*
G01X5397Y1306D01*
G01X5397Y1306D02*
G01X5386Y1284D01*
G01X5386Y1284D02*
G01X5363Y1261D01*
G01X5363Y1261D02*
G01X5329Y1250D01*
G01X5329Y1250D02*
G01X5250Y1250D01*
G01X5500Y1352D02*
G01X5704Y1352D01*
G01X5977Y1488D02*
G01X5977Y1250D01*
G01X5977Y1488D02*
G01X6124Y1488D01*
G01X5977Y1375D02*
G01X6068Y1375D01*
G01X6284Y1488D02*
G01X6261Y1477D01*
G01X6261Y1477D02*
G01X6238Y1454D01*
G01X6238Y1454D02*
G01X6227Y1431D01*
G01X6227Y1431D02*
G01X6215Y1397D01*
G01X6215Y1397D02*
G01X6215Y1340D01*
G01X6215Y1340D02*
G01X6227Y1306D01*
G01X6227Y1306D02*
G01X6238Y1284D01*
G01X6238Y1284D02*
G01X6261Y1261D01*
G01X6261Y1261D02*
G01X6284Y1250D01*
G01X6284Y1250D02*
G01X6329Y1250D01*
G01X6329Y1250D02*
G01X6352Y1261D01*
G01X6352Y1261D02*
G01X6374Y1284D01*
G01X6374Y1284D02*
G01X6386Y1306D01*
G01X6386Y1306D02*
G01X6397Y1340D01*
G01X6397Y1340D02*
G01X6397Y1397D01*
G01X6397Y1397D02*
G01X6386Y1431D01*
G01X6386Y1431D02*
G01X6374Y1454D01*
G01X6374Y1454D02*
G01X6352Y1477D01*
G01X6352Y1477D02*
G01X6329Y1488D01*
G01X6329Y1488D02*
G01X6284Y1488D01*
G01X6488Y1488D02*
G01X6488Y1250D01*
G01X6488Y1488D02*
G01X6590Y1488D01*
G01X6590Y1488D02*
G01X6624Y1477D01*
G01X6624Y1477D02*
G01X6636Y1465D01*
G01X6636Y1465D02*
G01X6647Y1443D01*
G01X6647Y1443D02*
G01X6647Y1420D01*
G01X6647Y1420D02*
G01X6636Y1397D01*
G01X6636Y1397D02*
G01X6624Y1386D01*
G01X6624Y1386D02*
G01X6590Y1375D01*
G01X6590Y1375D02*
G01X6488Y1375D01*
G01X6568Y1375D02*
G01X6647Y1250D01*
G01X6909Y1431D02*
G01X6897Y1454D01*
G01X6897Y1454D02*
G01X6874Y1477D01*
G01X6874Y1477D02*
G01X6852Y1488D01*
G01X6852Y1488D02*
G01X6806Y1488D01*
G01X6806Y1488D02*
G01X6784Y1477D01*
G01X6784Y1477D02*
G01X6761Y1454D01*
G01X6761Y1454D02*
G01X6749Y1431D01*
G01X6749Y1431D02*
G01X6738Y1397D01*
G01X6738Y1397D02*
G01X6738Y1340D01*
G01X6738Y1340D02*
G01X6749Y1306D01*
G01X6749Y1306D02*
G01X6761Y1284D01*
G01X6761Y1284D02*
G01X6784Y1261D01*
G01X6784Y1261D02*
G01X6806Y1250D01*
G01X6806Y1250D02*
G01X6852Y1250D01*
G01X6852Y1250D02*
G01X6874Y1261D01*
G01X6874Y1261D02*
G01X6897Y1284D01*
G01X6897Y1284D02*
G01X6909Y1306D01*
G01X7000Y1488D02*
G01X7000Y1250D01*
G01X7000Y1488D02*
G01X7147Y1488D01*
G01X7000Y1375D02*
G01X7090Y1375D01*
G01X7000Y1250D02*
G01X7147Y1250D01*
G01X7238Y1352D02*
G01X7443Y1352D01*
G54D11*
G01X-6750Y16704D02*
G01X-6340Y16704D01*
G01X-5795Y16977D02*
G01X-5795Y16500D01*
G01X-5272Y16863D02*
G01X-5295Y16909D01*
G01X-5295Y16909D02*
G01X-5340Y16954D01*
G01X-5340Y16954D02*
G01X-5386Y16977D01*
G01X-5386Y16977D02*
G01X-5477Y16977D01*
G01X-5477Y16977D02*
G01X-5522Y16954D01*
G01X-5522Y16954D02*
G01X-5568Y16909D01*
G01X-5568Y16909D02*
G01X-5590Y16863D01*
G01X-5590Y16863D02*
G01X-5613Y16795D01*
G01X-5613Y16795D02*
G01X-5613Y16681D01*
G01X-5613Y16681D02*
G01X-5590Y16613D01*
G01X-5590Y16613D02*
G01X-5568Y16568D01*
G01X-5568Y16568D02*
G01X-5522Y16522D01*
G01X-5522Y16522D02*
G01X-5477Y16500D01*
G01X-5477Y16500D02*
G01X-5386Y16500D01*
G01X-5386Y16500D02*
G01X-5340Y16522D01*
G01X-5340Y16522D02*
G01X-5295Y16568D01*
G01X-5295Y16568D02*
G01X-5272Y16613D01*
G01X-4772Y16909D02*
G01X-4818Y16954D01*
G01X-4818Y16954D02*
G01X-4886Y16977D01*
G01X-4886Y16977D02*
G01X-4977Y16977D01*
G01X-4977Y16977D02*
G01X-5045Y16954D01*
G01X-5045Y16954D02*
G01X-5090Y16909D01*
G01X-5090Y16909D02*
G01X-5090Y16863D01*
G01X-5090Y16863D02*
G01X-5068Y16818D01*
G01X-5068Y16818D02*
G01X-5045Y16795D01*
G01X-5045Y16795D02*
G01X-5000Y16772D01*
G01X-5000Y16772D02*
G01X-4863Y16727D01*
G01X-4863Y16727D02*
G01X-4818Y16704D01*
G01X-4818Y16704D02*
G01X-4795Y16681D01*
G01X-4795Y16681D02*
G01X-4772Y16636D01*
G01X-4772Y16636D02*
G01X-4772Y16568D01*
G01X-4772Y16568D02*
G01X-4818Y16522D01*
G01X-4818Y16522D02*
G01X-4886Y16500D01*
G01X-4886Y16500D02*
G01X-4977Y16500D01*
G01X-4977Y16500D02*
G01X-5045Y16522D01*
G01X-5045Y16522D02*
G01X-5090Y16568D01*
G01X-4590Y16977D02*
G01X-4590Y16500D01*
G01X-4590Y16977D02*
G01X-4386Y16977D01*
G01X-4386Y16977D02*
G01X-4318Y16954D01*
G01X-4318Y16954D02*
G01X-4295Y16931D01*
G01X-4295Y16931D02*
G01X-4272Y16886D01*
G01X-4272Y16886D02*
G01X-4272Y16818D01*
G01X-4272Y16818D02*
G01X-4295Y16772D01*
G01X-4295Y16772D02*
G01X-4318Y16750D01*
G01X-4318Y16750D02*
G01X-4386Y16727D01*
G01X-4386Y16727D02*
G01X-4590Y16727D01*
M00*
M02*
